<svg width="41" height="40" viewBox="0 0 41 40" fill="none" xmlns="http://www.w3.org/2000/svg">
<g clip-path="url(#clip0)">
<path fill-rule="evenodd" clip-rule="evenodd" d="M4.67139 0H36.6714C38.8807 0 40.6714 1.79072 40.6714 4V36C40.6714 38.2093 38.8807 40 36.6714 40H4.67139C2.46211 40 0.671387 38.2093 0.671387 36V4C0.671387 1.79072 2.46211 0 4.67139 0Z" fill="#010101"/>
<path fill-rule="evenodd" clip-rule="evenodd" d="M25.7885 36.7997C27.0056 36.7997 27.9923 35.821 27.9923 34.6138C27.9923 33.4066 27.0056 32.4277 25.7885 32.4277H25.4565C26.6736 32.4277 27.6603 33.4066 27.6603 34.6138C27.6603 35.821 26.6736 36.7997 25.4565 36.7997H25.7885Z" fill="#EE1D51"/>
<path fill-rule="evenodd" clip-rule="evenodd" d="M25.4262 32.4277H25.0942C23.877 32.4277 22.8901 33.4066 22.8901 34.6138C22.8901 35.821 23.877 36.7997 25.0942 36.7997H25.4262C24.2089 36.7997 23.2221 35.821 23.2221 34.6138C23.2221 33.4066 24.2089 32.4277 25.4262 32.4277V32.4277Z" fill="#66C8CF"/>
<path d="M25.441 35.6764C26.0329 35.6764 26.5128 35.2006 26.5128 34.6136C26.5128 34.0266 26.0329 33.5508 25.441 33.5508C24.849 33.5508 24.3691 34.0266 24.3691 34.6136C24.3691 35.2006 24.849 35.6764 25.441 35.6764Z" fill="#010101"/>
<path fill-rule="evenodd" clip-rule="evenodd" d="M8.67139 31.4404V32.5484H9.96931V36.7705H11.2677V32.5783H12.3242L12.6864 31.4404H8.67139ZM19.2978 31.4404V32.5484H20.5957V36.7705H21.8941V32.5783H22.9506L23.3128 31.4404H19.2978ZM12.9282 32.0692C12.9282 31.722 13.2115 31.4404 13.5616 31.4404C13.912 31.4404 14.1957 31.722 14.1957 32.0692C14.1957 32.4164 13.9122 32.698 13.5616 32.698C13.2115 32.6979 12.9282 32.4164 12.9282 32.0692ZM12.9282 33.1473H14.1957V36.7705H12.9282V33.1473ZM14.7392 31.4404V36.7705H16.0072V35.3932L16.3997 35.0335L17.6373 36.8004H18.9957L17.2144 34.2252L18.8144 32.6679H17.2749L16.0072 33.9255V31.4404H14.7392ZM28.4144 31.4404V36.7705H29.6826V35.3932L30.0749 35.0335L31.3128 36.8004H32.6714L30.8901 34.2252L32.4901 32.6679H30.9506L29.6826 33.9255V31.4404H28.4144Z" fill="white"/>
<path fill-rule="evenodd" clip-rule="evenodd" d="M26.458 12.9901C28.209 14.2412 30.3543 14.9773 32.6711 14.9773V10.5212C32.2326 10.5213 31.7953 10.4756 31.3663 10.3847V13.8924C29.0497 13.8924 26.9047 13.1562 25.1532 11.9052V20.9988C25.1532 25.5479 21.4636 29.2354 16.9124 29.2354C15.2143 29.2354 13.6359 28.7223 12.3247 27.8423C13.8212 29.3716 15.9081 30.3204 18.2169 30.3204C22.7684 30.3204 26.4581 26.6328 26.4581 22.0836V12.9901H26.458ZM28.0676 8.49444C27.1727 7.51732 26.5852 6.25444 26.458 4.85828V4.28516H25.2215C25.5327 6.05956 26.5943 7.57556 28.0676 8.49444V8.49444ZM15.2033 24.3516C14.7033 23.6964 14.4331 22.8947 14.4343 22.0706C14.4343 19.99 16.122 18.3031 18.2041 18.3031C18.592 18.3028 18.9777 18.3623 19.3476 18.4796V13.9239C18.9155 13.8647 18.4793 13.8396 18.0433 13.8488V17.3948C17.6733 17.2775 17.2874 17.218 16.8993 17.2183C14.8172 17.2183 13.1297 18.9052 13.1297 20.986C13.1297 22.4572 13.9732 23.7311 15.2033 24.3516V24.3516Z" fill="#EE1D52"/>
<path fill-rule="evenodd" clip-rule="evenodd" d="M25.1534 11.9052C26.9049 13.1562 29.0498 13.8924 31.3665 13.8924V10.3847C30.0734 10.1095 28.9286 9.43398 28.0678 8.49446C26.5945 7.57557 25.5329 6.05956 25.2217 4.28516H21.9738V22.0835C21.9665 24.1584 20.2817 25.8384 18.2041 25.8384C16.9798 25.8384 15.8921 25.2552 15.2033 24.3517C13.9732 23.7312 13.1297 22.4572 13.1297 20.986C13.1297 18.9052 14.8172 17.2183 16.8993 17.2183C17.2982 17.2183 17.6826 17.2804 18.0433 17.3948V13.8489C13.5721 13.9412 9.97607 17.5927 9.97607 22.0836C9.97607 24.3254 10.8716 26.3577 12.3249 27.8426C13.6361 28.7226 15.2145 29.2357 16.9126 29.2357C21.4638 29.2357 25.1534 25.548 25.1534 20.999V11.9052Z" fill="white"/>
<path fill-rule="evenodd" clip-rule="evenodd" d="M31.3663 10.3845V9.43604C30.2001 9.43779 29.057 9.11138 28.0676 8.49412C28.9434 9.45248 30.0967 10.1134 31.3663 10.3845V10.3845ZM25.2215 4.285C25.1918 4.11544 25.169 3.94473 25.1532 3.77332V3.2002H20.6688V20.9986C20.6616 23.0733 18.9769 24.7533 16.8992 24.7533C16.2891 24.7533 15.7133 24.6087 15.2032 24.3514C15.892 25.2549 16.9797 25.8381 18.204 25.8381C20.2814 25.8381 21.9664 24.1581 21.9737 22.0832V4.285H25.2215ZM18.0433 13.8487V12.8389C17.6686 12.7877 17.2908 12.7621 16.9126 12.7623C12.361 12.7623 8.67139 16.45 8.67139 20.9986C8.67139 23.8504 10.1215 26.3637 12.325 27.8421C10.8717 26.3573 9.97618 24.325 9.97618 22.0832C9.97618 17.5925 13.572 13.941 18.0433 13.8487V13.8487Z" fill="#69C9D0"/>
<path fill-rule="evenodd" clip-rule="evenodd" d="M25.456 36.7997C26.6731 36.7997 27.66 35.821 27.66 34.6138C27.66 33.4066 26.6731 32.4277 25.456 32.4277H25.4259C24.2089 32.4277 23.2222 33.4066 23.2222 34.6138C23.2222 35.821 24.2089 36.7997 25.4259 36.7997H25.456ZM24.3693 34.6138C24.3693 34.0266 24.8493 33.5509 25.4413 33.5509C26.0328 33.5509 26.5128 34.0266 26.5128 34.6138C26.5128 35.201 26.0328 35.677 25.4413 35.677C24.8493 35.6768 24.3693 35.201 24.3693 34.6138Z" fill="white"/>
</g>
<defs>
<clipPath id="clip0">
<rect width="40" height="40" fill="white" transform="translate(0.671387)"/>
</clipPath>
</defs>
</svg>
