<svg width="81" height="14" viewBox="0 0 81 14" fill="none" xmlns="http://www.w3.org/2000/svg">
<path d="M0.428453 12H2.50045V1.626H0.428453V12ZM6.82755 12H8.89955V3.362H11.8395V1.626H3.91555V3.362H6.82755V12ZM22.5775 4.006H18.8395V3.586H22.5775V4.006ZM22.5775 5.14H18.8395V4.706H22.5775V5.14ZM22.5775 6.288H18.8395V5.84H22.5775V6.288ZM17.2995 2.858V7.03H24.1875V2.858H21.1495L21.3315 2.41H25.3215V1.29H23.2635C23.4595 1.024 23.6695 0.701999 23.8795 0.352L22.3255 0.113999C22.1855 0.449999 21.9475 0.911999 21.7235 1.29H19.8055C19.6655 0.926 19.3995 0.463999 19.1615 0.127999L17.8035 0.379999C17.9715 0.645999 18.1535 0.981999 18.2795 1.29H16.1935V2.41H19.8055C19.7775 2.564 19.7355 2.718 19.7075 2.858H17.2995ZM16.0115 2.018C15.6195 1.486 14.7655 0.771999 14.0655 0.296L12.9875 1.206C13.6875 1.724 14.5135 2.494 14.8775 3.012L16.0115 2.018ZM22.3395 8.668C23.3895 8.654 24.3975 8.626 25.1395 8.598C25.2095 8.234 25.4055 7.632 25.5455 7.324C23.6135 7.464 19.9595 7.506 18.2655 7.436C17.0755 7.394 16.2355 7.086 15.7735 6.316V3.6H12.6515V4.86H14.2615V6.554C13.6735 6.89 13.0575 7.198 12.5395 7.45L13.0995 8.766C13.8835 8.29 14.5695 7.856 15.2415 7.394C15.9135 8.276 16.8655 8.584 18.2795 8.64C18.9235 8.654 19.7915 8.668 20.7295 8.668V9.256H12.6095V10.516H15.7035L14.9615 11.132C15.6195 11.594 16.4595 12.308 16.8235 12.77L18.0275 11.748C17.7055 11.384 17.1315 10.908 16.5715 10.516H20.7295V11.594C20.7295 11.748 20.6595 11.804 20.4355 11.804C20.2255 11.818 19.4555 11.818 18.7695 11.776C18.9795 12.196 19.2175 12.77 19.2875 13.218C20.3235 13.218 21.0655 13.204 21.6255 12.994C22.1855 12.77 22.3395 12.378 22.3395 11.636V10.516H25.3355V9.256H22.3395V8.668ZM28.9195 0.926V2.62H32.1115C32.1535 3.096 32.2095 3.6 32.3075 4.132L31.4535 3.978C30.6835 7.66 29.0175 10.362 26.1055 11.832C26.5395 12.154 27.3235 12.84 27.6315 13.19C30.0675 11.734 31.7475 9.41 32.7975 6.274C33.5675 8.78 35.0515 11.426 37.9495 13.176C38.2435 12.742 38.9295 12.014 39.2935 11.72C34.1415 8.682 33.7635 3.572 33.7635 0.926H28.9195ZM51.0255 5.854V6.848H49.7095V5.854H51.0255ZM49.7095 9.144V8.136H51.0255V9.144H49.7095ZM46.8535 9.144V8.136H48.1275V9.144H46.8535ZM48.1275 5.854V6.848H46.8535V5.854H48.1275ZM52.9155 3.544V2.074H52.1595L52.7615 1.472C52.3695 1.066 51.5435 0.533999 50.9135 0.197999L50.0035 1.066C50.4655 1.346 51.0115 1.724 51.4175 2.074H49.7095V0.17H48.1275V2.074H44.8935V3.544H48.1275V4.454H45.3275V5.966L44.5015 5.35C44.3335 5.728 44.0395 6.232 43.7595 6.652C43.6195 6.484 43.4935 6.33 43.3815 6.19C43.9135 5.238 44.3755 4.202 44.6975 3.166L43.8575 2.634L43.5635 2.69H43.1715V0.183999H41.6315V2.69H40.0775V4.174H42.8355C42.1075 5.84 40.9035 7.464 39.6995 8.43C39.9515 8.696 40.3295 9.508 40.4835 9.928C40.8755 9.592 41.2675 9.186 41.6455 8.724V13.204H43.1855V7.898C43.5635 8.458 43.9275 9.032 44.1375 9.438L45.1035 8.332L44.4035 7.45C44.6835 7.1 45.0055 6.666 45.3275 6.246V13.19H46.8535V10.46H48.1275V13.148H49.7095V10.46H51.0255V11.622C51.0255 11.776 50.9835 11.818 50.8435 11.818C50.7175 11.818 50.3395 11.818 49.9755 11.804C50.1855 12.182 50.4095 12.826 50.4795 13.232C51.1655 13.232 51.6835 13.19 52.0755 12.952C52.4815 12.7 52.5935 12.308 52.5935 11.65V4.454H49.7095V3.544H52.9155ZM55.9535 7.982H57.8015V9.298C57.1575 9.424 56.5415 9.564 55.9535 9.676V7.982ZM57.8015 2.214V3.628H55.9535V2.214H57.8015ZM57.8015 6.526H55.9535V5.084H57.8015V6.526ZM66.2155 3.152H63.1775C63.2055 2.2 63.2055 1.192 63.2055 0.141999H61.5675C61.5675 1.206 61.5675 2.2 61.5535 3.152H59.7195V4.72H61.4975C61.3715 6.89 61.0355 8.696 60.0975 10.152L59.9435 8.836L59.3415 8.962V0.715999H54.4835V9.956C54.1335 10.026 53.7975 10.082 53.5175 10.138L53.7835 11.846C55.4915 11.44 57.7875 10.908 59.9295 10.376C59.5095 10.978 58.9635 11.496 58.2775 11.958C58.6695 12.252 59.1875 12.812 59.4395 13.218C62.1415 11.356 62.8975 8.416 63.1075 4.72H64.5915C64.5075 9.214 64.3815 10.95 64.0595 11.328C63.9335 11.524 63.7935 11.566 63.5695 11.566C63.2615 11.566 62.6315 11.552 61.9455 11.51C62.2395 11.944 62.4075 12.644 62.4355 13.092C63.1635 13.12 63.8915 13.134 64.3395 13.05C64.8435 12.966 65.1795 12.812 65.5015 12.336C65.9635 11.692 66.0895 9.634 66.2155 3.894V3.152ZM72.8936 8.584V11.384H71.0036L72.1516 10.894C71.9416 10.25 71.3956 9.298 70.8636 8.584H72.8936ZM71.3116 4.314C72.3196 3.474 73.1876 2.564 73.7896 1.724C74.4056 2.564 75.3296 3.474 76.3656 4.314H71.3116ZM76.5896 8.584C76.2816 9.326 75.7216 10.348 75.2596 11.006L76.1696 11.384H74.6436V8.584H78.9556V7.156H74.6436V5.77H77.3176V5.042C78.0176 5.546 78.7456 6.008 79.4456 6.372C79.7536 5.854 80.1316 5.294 80.5516 4.874C78.3396 3.978 76.0856 2.214 74.5736 0.0999997H72.8516C71.8156 1.78 69.5756 3.88 67.1956 5.042C67.5596 5.392 68.0216 5.994 68.2316 6.386C68.9456 6.008 69.6596 5.56 70.3176 5.084V5.77H72.8936V7.156H68.6376V8.584H70.7796L69.5056 9.13C69.9956 9.816 70.4576 10.754 70.6676 11.384H67.9376V12.812H79.7816V11.384H76.6176C77.1076 10.796 77.6536 9.942 78.1856 9.172L76.5896 8.584Z" fill="#1E75DF"/>
</svg>
