<svg width="93" height="16" viewBox="0 0 93 16" fill="none" xmlns="http://www.w3.org/2000/svg">
<path d="M0.775374 14H3.14337V2.144H0.775374V14ZM8.08862 14H10.4566V4.128H13.8166V2.144H4.76062V4.128H8.08862V14ZM26.0886 4.864H21.8166V4.384H26.0886V4.864ZM26.0886 6.16H21.8166V5.664H26.0886V6.16ZM26.0886 7.472H21.8166V6.96H26.0886V7.472ZM20.0566 3.552V8.32H27.9286V3.552H24.4566L24.6646 3.04H29.2246V1.76H26.8726C27.0966 1.456 27.3366 1.088 27.5766 0.688L25.8006 0.415999C25.6406 0.799999 25.3686 1.328 25.1126 1.76H22.9206C22.7606 1.344 22.4566 0.815999 22.1846 0.431999L20.6326 0.719999C20.8246 1.024 21.0326 1.408 21.1766 1.76H18.7926V3.04H22.9206C22.8886 3.216 22.8406 3.392 22.8086 3.552H20.0566ZM18.5846 2.592C18.1366 1.984 17.1606 1.168 16.3606 0.624L15.1286 1.664C15.9286 2.256 16.8726 3.136 17.2886 3.728L18.5846 2.592ZM25.8166 10.192C27.0166 10.176 28.1686 10.144 29.0166 10.112C29.0966 9.696 29.3206 9.008 29.4806 8.656C27.2726 8.816 23.0966 8.864 21.1606 8.784C19.8006 8.736 18.8406 8.384 18.3126 7.504V4.4H14.7446V5.84H16.5846V7.776C15.9126 8.16 15.2086 8.512 14.6166 8.8L15.2566 10.304C16.1526 9.76 16.9366 9.264 17.7046 8.736C18.4726 9.744 19.5606 10.096 21.1766 10.16C21.9126 10.176 22.9046 10.192 23.9766 10.192V10.864H14.6966V12.304H18.2326L17.3846 13.008C18.1366 13.536 19.0966 14.352 19.5126 14.88L20.8886 13.712C20.5206 13.296 19.8646 12.752 19.2246 12.304H23.9766V13.536C23.9766 13.712 23.8966 13.776 23.6406 13.776C23.4006 13.792 22.5206 13.792 21.7366 13.744C21.9766 14.224 22.2486 14.88 22.3286 15.392C23.5126 15.392 24.3606 15.376 25.0006 15.136C25.6406 14.88 25.8166 14.432 25.8166 13.584V12.304H29.2406V10.864H25.8166V10.192ZM33.3366 1.344V3.28H36.9846C37.0326 3.824 37.0966 4.4 37.2086 5.008L36.2326 4.832C35.3526 9.04 33.4486 12.128 30.1206 13.808C30.6166 14.176 31.5126 14.96 31.8646 15.36C34.6486 13.696 36.5686 11.04 37.7686 7.456C38.6486 10.32 40.3446 13.344 43.6566 15.344C43.9926 14.848 44.7766 14.016 45.1926 13.68C39.3046 10.208 38.8726 4.368 38.8726 1.344H33.3366ZM58.6006 6.976V8.112H57.0966V6.976H58.6006ZM57.0966 10.736V9.584H58.6006V10.736H57.0966ZM53.8326 10.736V9.584H55.2886V10.736H53.8326ZM55.2886 6.976V8.112H53.8326V6.976H55.2886ZM60.7606 4.336V2.656H59.8966L60.5846 1.968C60.1366 1.504 59.1926 0.895999 58.4726 0.511999L57.4326 1.504C57.9606 1.824 58.5846 2.256 59.0486 2.656H57.0966V0.48H55.2886V2.656H51.5926V4.336H55.2886V5.376H52.0886V7.104L51.1446 6.4C50.9526 6.832 50.6166 7.408 50.2966 7.888C50.1366 7.696 49.9926 7.52 49.8646 7.36C50.4726 6.272 51.0006 5.088 51.3686 3.904L50.4086 3.296L50.0726 3.36H49.6246V0.495999H47.8646V3.36H46.0886V5.056H49.2406C48.4086 6.96 47.0326 8.816 45.6566 9.92C45.9446 10.224 46.3766 11.152 46.5526 11.632C47.0006 11.248 47.4486 10.784 47.8806 10.256V15.376H49.6406V9.312C50.0726 9.952 50.4886 10.608 50.7286 11.072L51.8326 9.808L51.0326 8.8C51.3526 8.4 51.7206 7.904 52.0886 7.424V15.36H53.8326V12.24H55.2886V15.312H57.0966V12.24H58.6006V13.568C58.6006 13.744 58.5526 13.792 58.3926 13.792C58.2486 13.792 57.8166 13.792 57.4006 13.776C57.6406 14.208 57.8966 14.944 57.9766 15.408C58.7606 15.408 59.3526 15.36 59.8006 15.088C60.2646 14.8 60.3926 14.352 60.3926 13.6V5.376H57.0966V4.336H60.7606ZM64.2326 9.408H66.3446V10.912C65.6086 11.056 64.9046 11.216 64.2326 11.344V9.408ZM66.3446 2.816V4.432H64.2326V2.816H66.3446ZM66.3446 7.744H64.2326V6.096H66.3446V7.744ZM75.9606 3.888H72.4886C72.5206 2.8 72.5206 1.648 72.5206 0.447999H70.6486C70.6486 1.664 70.6486 2.8 70.6326 3.888H68.5366V5.68H70.5686C70.4246 8.16 70.0406 10.224 68.9686 11.888L68.7926 10.384L68.1046 10.528V1.104H62.5526V11.664C62.1526 11.744 61.7686 11.808 61.4486 11.872L61.7526 13.824C63.7046 13.36 66.3286 12.752 68.7766 12.144C68.2966 12.832 67.6726 13.424 66.8886 13.952C67.3366 14.288 67.9286 14.928 68.2166 15.392C71.3046 13.264 72.1686 9.904 72.4086 5.68H74.1046C74.0086 10.816 73.8646 12.8 73.4966 13.232C73.3526 13.456 73.1926 13.504 72.9366 13.504C72.5846 13.504 71.8646 13.488 71.0806 13.44C71.4166 13.936 71.6086 14.736 71.6406 15.248C72.4726 15.28 73.3046 15.296 73.8166 15.2C74.3926 15.104 74.7766 14.928 75.1446 14.384C75.6726 13.648 75.8166 11.296 75.9606 4.736V3.888ZM83.5926 10.096V13.296H81.4326L82.7446 12.736C82.5046 12 81.8806 10.912 81.2726 10.096H83.5926ZM81.7846 5.216C82.9366 4.256 83.9286 3.216 84.6166 2.256C85.3206 3.216 86.3766 4.256 87.5606 5.216H81.7846ZM87.8166 10.096C87.4646 10.944 86.8246 12.112 86.2966 12.864L87.3366 13.296H85.5926V10.096H90.5206V8.464H85.5926V6.88H88.6486V6.048C89.4486 6.624 90.2806 7.152 91.0806 7.568C91.4326 6.976 91.8646 6.336 92.3446 5.856C89.8166 4.832 87.2406 2.816 85.5126 0.4H83.5446C82.3606 2.32 79.8006 4.72 77.0806 6.048C77.4966 6.448 78.0246 7.136 78.2646 7.584C79.0806 7.152 79.8966 6.64 80.6486 6.096V6.88H83.5926V8.464H78.7286V10.096H81.1766L79.7206 10.72C80.2806 11.504 80.8086 12.576 81.0486 13.296H77.9286V14.928H91.4646V13.296H87.8486C88.4086 12.624 89.0326 11.648 89.6406 10.768L87.8166 10.096Z" fill="#1E75DF"/>
</svg>
