<svg width="126" height="16" viewBox="0 0 126 16" fill="none" xmlns="http://www.w3.org/2000/svg">
<path d="M11.912 11.696H9.032V10.944H11.912V11.696ZM9.032 8.8H11.912V9.488H9.032V8.8ZM4.584 5.616V4.848H7.096V5.616H4.584ZM11.624 4.848V5.616H9.032V4.848H11.624ZM15.512 9.488H13.848V7.52H9.032V6.816H13.576V3.648H9.032V2.992H15.144V1.488H9.032V0.447999H7.096V1.488H1.128V2.992H7.096V3.648H2.76V6.816H7.096V7.52H2.36V8.8H7.096V9.488H0.759999V10.944H7.096V11.696H2.232V13.072H7.096V13.568C7.096 13.856 7 13.952 6.696 13.968C6.44 13.968 5.496 13.968 4.728 13.936C4.968 14.336 5.256 14.992 5.352 15.44C6.712 15.44 7.576 15.408 8.184 15.168C8.808 14.896 9.032 14.512 9.032 13.568V13.072H11.912V13.728H13.848V10.944H15.512V9.488ZM25.768 4.608C25.592 5.04 25.4 5.504 25.208 5.888H22.216L22.488 5.84C22.376 5.504 22.168 5.024 21.944 4.608H25.768ZM30.936 11.744V10.176H24.712V9.472H29.512V8.096H24.712V7.376H30.264V5.888H27.128C27.368 5.504 27.624 5.072 27.88 4.608H30.888V3.056H28.808C29.176 2.496 29.608 1.776 30.056 1.04L28.056 0.559999C27.832 1.264 27.432 2.224 27.048 2.88L27.624 3.056H26.2V0.447999H24.408V3.056H23.224V0.447999H21.448V3.056H19.992L20.776 2.768C20.552 2.144 20.024 1.2 19.56 0.511999L17.928 1.072C18.28 1.68 18.696 2.448 18.92 3.056H16.776V4.608H20.12L19.928 4.64C20.136 5.008 20.344 5.488 20.472 5.888H17.432V7.376H22.84V8.096H18.232V9.472H22.84V10.176H16.728V11.744H21.32C19.944 12.576 18.056 13.248 16.264 13.616C16.664 14 17.208 14.736 17.48 15.2C19.384 14.704 21.352 13.776 22.84 12.608V15.392H24.712V12.512C26.184 13.76 28.12 14.72 30.088 15.216C30.376 14.704 30.936 13.904 31.368 13.488C29.512 13.2 27.656 12.576 26.296 11.744H30.936ZM40.376 9.984V8.688H43.24V9.984H40.376ZM35.704 8.688H38.472V9.984H35.704V8.688ZM38.472 5.824V7.072H35.704V5.824H38.472ZM43.24 5.824V7.072H40.376V5.824H43.24ZM46.968 9.984H45.144V4.112H40.376V3.056H46.328V1.312H32.648V3.056H38.472V4.112H33.816V9.984H31.992V11.744H33.816V15.408H35.704V11.744H43.24V13.296C43.24 13.568 43.144 13.648 42.856 13.648C42.568 13.648 41.544 13.664 40.664 13.616C40.936 14.096 41.224 14.896 41.32 15.408C42.664 15.408 43.624 15.392 44.264 15.088C44.936 14.8 45.144 14.288 45.144 13.328V11.744H46.968V9.984ZM53.464 9.168C53.208 8.72 52.024 6.88 51.576 6.256V5.504H53.176V3.744H51.576V0.447999H49.848V3.744H47.928V5.504H49.704C49.304 7.392 48.456 9.616 47.56 10.864C47.832 11.296 48.216 12.016 48.392 12.544C48.936 11.744 49.432 10.624 49.848 9.392V15.376H51.576V8.56C51.928 9.28 52.28 10.032 52.488 10.528L53.464 9.168ZM58.696 11.488V10.72H60.12V11.488H58.696ZM55.624 10.72H56.984V11.488H55.624V10.72ZM56.984 8.8V9.488H55.624V8.8H56.984ZM60.12 8.8V9.488H58.696V8.8H60.12ZM56.968 4.864H58.728V5.536H56.968V4.864ZM56.968 2.928H58.728V3.584H56.968V2.928ZM62.744 11.488H61.88V7.488H58.696V6.88H62.584V5.536H60.504V4.864H62.04V3.584H60.504V2.928H62.296V1.616H60.504V0.447999H58.728V1.616H56.968V0.447999H55.208V1.616H53.56V2.928H55.208V3.584H53.896V4.864H55.208V5.536H53.224V6.88H56.984V7.488H53.912V11.488H52.936V12.88H53.912V15.264H55.624V12.88H60.12V13.552C60.12 13.744 60.056 13.792 59.848 13.792C59.656 13.792 59 13.808 58.408 13.776C58.616 14.208 58.824 14.832 58.904 15.28C59.912 15.28 60.664 15.264 61.192 15.024C61.72 14.768 61.88 14.368 61.88 13.568V12.88H62.744V11.488ZM66.36 3.056C66.648 3.552 66.936 4.112 67.048 4.512L68.584 4.064C68.488 3.792 68.296 3.424 68.088 3.056H70.328C70.12 3.248 69.912 3.424 69.704 3.584C70.152 3.776 70.984 4.208 71.368 4.496C71.8 4.112 72.232 3.616 72.632 3.056H73.512C73.88 3.536 74.232 4.112 74.392 4.496L76.008 4.032C75.88 3.76 75.656 3.408 75.4 3.056H78.2V1.568H73.56C73.704 1.296 73.832 1.024 73.944 0.751999L72.136 0.32C71.8 1.2 71.256 2.064 70.616 2.752V1.568H67.048C67.192 1.312 67.32 1.056 67.432 0.799999L65.656 0.32C65.176 1.504 64.28 2.688 63.32 3.456C63.752 3.68 64.504 4.192 64.856 4.496C65.272 4.112 65.704 3.616 66.104 3.056H66.36ZM74.52 5.84V7.456C74.088 7.04 73.464 6.576 72.952 6.208L72.152 6.896C72.168 6.672 72.184 6.464 72.184 6.24V5.84H74.52ZM78.088 11.664V10.176H71.752V9.216H70.84C71.544 8.672 71.912 8 72.072 7.312C72.664 7.792 73.304 8.384 73.624 8.8L74.536 7.984C74.568 8.592 74.68 8.848 74.888 9.072C75.16 9.344 75.592 9.456 75.992 9.456H76.776C77.048 9.456 77.4 9.408 77.624 9.296C77.864 9.168 78.04 8.96 78.152 8.672C78.248 8.416 78.312 7.76 78.36 7.152C77.976 7.008 77.416 6.752 77.128 6.496C77.112 7.008 77.096 7.424 77.064 7.6C77.032 7.792 76.984 7.888 76.936 7.92C76.888 7.968 76.824 7.968 76.744 7.968H76.488C76.424 7.968 76.376 7.952 76.344 7.888C76.296 7.84 76.312 7.68 76.312 7.408V4.592H70.456V6.192C70.456 6.768 70.344 7.344 69.784 7.856L69.736 7.072L67.752 7.36V5.984H69.752V4.672H64.008V5.984H66.024V7.6C65.128 7.728 64.312 7.84 63.64 7.92L63.848 9.424C65.144 9.216 66.776 8.976 68.44 8.72C68.808 8.992 69.4 9.584 69.608 9.904C69.72 9.856 69.816 9.824 69.912 9.776V10.176H63.624V11.664H68.52C67.176 12.496 65.192 13.152 63.32 13.456C63.704 13.84 64.216 14.56 64.488 15.008C66.44 14.544 68.456 13.632 69.912 12.464V15.344H71.752V12.496C73.224 13.664 75.224 14.544 77.16 14.96C77.432 14.496 77.976 13.744 78.376 13.344C76.44 13.072 74.392 12.464 73.016 11.664H78.088ZM91.8 6.976V8.112H90.296V6.976H91.8ZM90.296 10.736V9.584H91.8V10.736H90.296ZM87.032 10.736V9.584H88.488V10.736H87.032ZM88.488 6.976V8.112H87.032V6.976H88.488ZM93.96 4.336V2.656H93.096L93.784 1.968C93.336 1.504 92.392 0.895999 91.672 0.511999L90.632 1.504C91.16 1.824 91.784 2.256 92.248 2.656H90.296V0.48H88.488V2.656H84.792V4.336H88.488V5.376H85.288V7.104L84.344 6.4C84.152 6.832 83.816 7.408 83.496 7.888C83.336 7.696 83.192 7.52 83.064 7.36C83.672 6.272 84.2 5.088 84.568 3.904L83.608 3.296L83.272 3.36H82.824V0.495999H81.064V3.36H79.288V5.056H82.44C81.608 6.96 80.232 8.816 78.856 9.92C79.144 10.224 79.576 11.152 79.752 11.632C80.2 11.248 80.648 10.784 81.08 10.256V15.376H82.84V9.312C83.272 9.952 83.688 10.608 83.928 11.072L85.032 9.808L84.232 8.8C84.552 8.4 84.92 7.904 85.288 7.424V15.36H87.032V12.24H88.488V15.312H90.296V12.24H91.8V13.568C91.8 13.744 91.752 13.792 91.592 13.792C91.448 13.792 91.016 13.792 90.6 13.776C90.84 14.208 91.096 14.944 91.176 15.408C91.96 15.408 92.552 15.36 93 15.088C93.464 14.8 93.592 14.352 93.592 13.6V5.376H90.296V4.336H93.96ZM97.432 9.408H99.544V10.912C98.808 11.056 98.104 11.216 97.432 11.344V9.408ZM99.544 2.816V4.432H97.432V2.816H99.544ZM99.544 7.744H97.432V6.096H99.544V7.744ZM109.16 3.888H105.688C105.72 2.8 105.72 1.648 105.72 0.447999H103.848C103.848 1.664 103.848 2.8 103.832 3.888H101.736V5.68H103.768C103.624 8.16 103.24 10.224 102.168 11.888L101.992 10.384L101.304 10.528V1.104H95.752V11.664C95.352 11.744 94.968 11.808 94.648 11.872L94.952 13.824C96.904 13.36 99.528 12.752 101.976 12.144C101.496 12.832 100.872 13.424 100.088 13.952C100.536 14.288 101.128 14.928 101.416 15.392C104.504 13.264 105.368 9.904 105.608 5.68H107.304C107.208 10.816 107.064 12.8 106.696 13.232C106.552 13.456 106.392 13.504 106.136 13.504C105.784 13.504 105.064 13.488 104.28 13.44C104.616 13.936 104.808 14.736 104.84 15.248C105.672 15.28 106.504 15.296 107.016 15.2C107.592 15.104 107.976 14.928 108.344 14.384C108.872 13.648 109.016 11.296 109.16 4.736V3.888ZM116.792 10.096V13.296H114.632L115.944 12.736C115.704 12 115.08 10.912 114.472 10.096H116.792ZM114.984 5.216C116.136 4.256 117.128 3.216 117.816 2.256C118.52 3.216 119.576 4.256 120.76 5.216H114.984ZM121.016 10.096C120.664 10.944 120.024 12.112 119.496 12.864L120.536 13.296H118.792V10.096H123.72V8.464H118.792V6.88H121.848V6.048C122.648 6.624 123.48 7.152 124.28 7.568C124.632 6.976 125.064 6.336 125.544 5.856C123.016 4.832 120.44 2.816 118.712 0.4H116.744C115.56 2.32 113 4.72 110.28 6.048C110.696 6.448 111.224 7.136 111.464 7.584C112.28 7.152 113.096 6.64 113.848 6.096V6.88H116.792V8.464H111.928V10.096H114.376L112.92 10.72C113.48 11.504 114.008 12.576 114.248 13.296H111.128V14.928H124.664V13.296H121.048C121.608 12.624 122.232 11.648 122.84 10.768L121.016 10.096Z" fill="#0097D0"/>
</svg>
