<svg width="110" height="14" viewBox="0 0 110 14" fill="none" xmlns="http://www.w3.org/2000/svg">
<path d="M10.298 9.984H7.778V9.326H10.298V9.984ZM7.778 7.45H10.298V8.052H7.778V7.45ZM3.886 4.664V3.992H6.084V4.664H3.886ZM10.046 3.992V4.664H7.778V3.992H10.046ZM13.448 8.052H11.992V6.33H7.778V5.714H11.754V2.942H7.778V2.368H13.126V1.052H7.778V0.141999H6.084V1.052H0.862V2.368H6.084V2.942H2.29V5.714H6.084V6.33H1.94V7.45H6.084V8.052H0.54V9.326H6.084V9.984H1.828V11.188H6.084V11.622C6.084 11.874 6 11.958 5.734 11.972C5.51 11.972 4.684 11.972 4.012 11.944C4.222 12.294 4.474 12.868 4.558 13.26C5.748 13.26 6.504 13.232 7.036 13.022C7.582 12.784 7.778 12.448 7.778 11.622V11.188H10.298V11.762H11.992V9.326H13.448V8.052ZM22.422 3.782C22.268 4.16 22.1 4.566 21.932 4.902H19.314L19.552 4.86C19.454 4.566 19.272 4.146 19.076 3.782H22.422ZM26.944 10.026V8.654H21.498V8.038H25.698V6.834H21.498V6.204H26.356V4.902H23.612C23.822 4.566 24.046 4.188 24.27 3.782H26.902V2.424H25.082C25.404 1.934 25.782 1.304 26.174 0.659999L24.424 0.24C24.228 0.855999 23.878 1.696 23.542 2.27L24.046 2.424H22.8V0.141999H21.232V2.424H20.196V0.141999H18.642V2.424H17.368L18.054 2.172C17.858 1.626 17.396 0.8 16.99 0.197999L15.562 0.688C15.87 1.22 16.234 1.892 16.43 2.424H14.554V3.782H17.48L17.312 3.81C17.494 4.132 17.676 4.552 17.788 4.902H15.128V6.204H19.86V6.834H15.828V8.038H19.86V8.654H14.512V10.026H18.53C17.326 10.754 15.674 11.342 14.106 11.664C14.456 12 14.932 12.644 15.17 13.05C16.836 12.616 18.558 11.804 19.86 10.782V13.218H21.498V10.698C22.786 11.79 24.48 12.63 26.202 13.064C26.454 12.616 26.944 11.916 27.322 11.552C25.698 11.3 24.074 10.754 22.884 10.026H26.944ZM35.204 8.486V7.352H37.71V8.486H35.204ZM31.116 7.352H33.538V8.486H31.116V7.352ZM33.538 4.846V5.938H31.116V4.846H33.538ZM37.71 4.846V5.938H35.204V4.846H37.71ZM40.972 8.486H39.376V3.348H35.204V2.424H40.412V0.897999H28.442V2.424H33.538V3.348H29.464V8.486H27.868V10.026H29.464V13.232H31.116V10.026H37.71V11.384C37.71 11.622 37.626 11.692 37.374 11.692C37.122 11.692 36.226 11.706 35.456 11.664C35.694 12.084 35.946 12.784 36.03 13.232C37.206 13.232 38.046 13.218 38.606 12.952C39.194 12.7 39.376 12.252 39.376 11.412V10.026H40.972V8.486ZM46.656 7.772C46.432 7.38 45.396 5.77 45.004 5.224V4.566H46.404V3.026H45.004V0.141999H43.492V3.026H41.812V4.566H43.366C43.016 6.218 42.274 8.164 41.49 9.256C41.728 9.634 42.064 10.264 42.218 10.726C42.694 10.026 43.128 9.046 43.492 7.968V13.204H45.004V7.24C45.312 7.87 45.62 8.528 45.802 8.962L46.656 7.772ZM51.234 9.802V9.13H52.48V9.802H51.234ZM48.546 9.13H49.736V9.802H48.546V9.13ZM49.736 7.45V8.052H48.546V7.45H49.736ZM52.48 7.45V8.052H51.234V7.45H52.48ZM49.722 4.006H51.262V4.594H49.722V4.006ZM49.722 2.312H51.262V2.886H49.722V2.312ZM54.776 9.802H54.02V6.302H51.234V5.77H54.636V4.594H52.816V4.006H54.16V2.886H52.816V2.312H54.384V1.164H52.816V0.141999H51.262V1.164H49.722V0.141999H48.182V1.164H46.74V2.312H48.182V2.886H47.034V4.006H48.182V4.594H46.446V5.77H49.736V6.302H47.048V9.802H46.194V11.02H47.048V13.106H48.546V11.02H52.48V11.608C52.48 11.776 52.424 11.818 52.242 11.818C52.074 11.818 51.5 11.832 50.982 11.804C51.164 12.182 51.346 12.728 51.416 13.12C52.298 13.12 52.956 13.106 53.418 12.896C53.88 12.672 54.02 12.322 54.02 11.622V11.02H54.776V9.802ZM57.94 2.424C58.192 2.858 58.444 3.348 58.542 3.698L59.886 3.306C59.802 3.068 59.634 2.746 59.452 2.424H61.412C61.23 2.592 61.048 2.746 60.866 2.886C61.258 3.054 61.986 3.432 62.322 3.684C62.7 3.348 63.078 2.914 63.428 2.424H64.198C64.52 2.844 64.828 3.348 64.968 3.684L66.382 3.278C66.27 3.04 66.074 2.732 65.85 2.424H68.3V1.122H64.24C64.366 0.884 64.478 0.645999 64.576 0.407999L62.994 0.0299997C62.7 0.8 62.224 1.556 61.664 2.158V1.122H58.542C58.668 0.897999 58.78 0.674 58.878 0.449999L57.324 0.0299997C56.904 1.066 56.12 2.102 55.28 2.774C55.658 2.97 56.316 3.418 56.624 3.684C56.988 3.348 57.366 2.914 57.716 2.424H57.94ZM65.08 4.86V6.274C64.702 5.91 64.156 5.504 63.708 5.182L63.008 5.784C63.022 5.588 63.036 5.406 63.036 5.21V4.86H65.08ZM68.202 9.956V8.654H62.658V7.814H61.86C62.476 7.338 62.798 6.75 62.938 6.148C63.456 6.568 64.016 7.086 64.296 7.45L65.094 6.736C65.122 7.268 65.22 7.492 65.402 7.688C65.64 7.926 66.018 8.024 66.368 8.024H67.054C67.292 8.024 67.6 7.982 67.796 7.884C68.006 7.772 68.16 7.59 68.258 7.338C68.342 7.114 68.398 6.54 68.44 6.008C68.104 5.882 67.614 5.658 67.362 5.434C67.348 5.882 67.334 6.246 67.306 6.4C67.278 6.568 67.236 6.652 67.194 6.68C67.152 6.722 67.096 6.722 67.026 6.722H66.802C66.746 6.722 66.704 6.708 66.676 6.652C66.634 6.61 66.648 6.47 66.648 6.232V3.768H61.524V5.168C61.524 5.672 61.426 6.176 60.936 6.624L60.894 5.938L59.158 6.19V4.986H60.908V3.838H55.882V4.986H57.646V6.4C56.862 6.512 56.148 6.61 55.56 6.68L55.742 7.996C56.876 7.814 58.304 7.604 59.76 7.38C60.082 7.618 60.6 8.136 60.782 8.416C60.88 8.374 60.964 8.346 61.048 8.304V8.654H55.546V9.956H59.83C58.654 10.684 56.918 11.258 55.28 11.524C55.616 11.86 56.064 12.49 56.302 12.882C58.01 12.476 59.774 11.678 61.048 10.656V13.176H62.658V10.684C63.946 11.706 65.696 12.476 67.39 12.84C67.628 12.434 68.104 11.776 68.454 11.426C66.76 11.188 64.968 10.656 63.764 9.956H68.202ZM80.2 5.854V6.848H78.884V5.854H80.2ZM78.884 9.144V8.136H80.2V9.144H78.884ZM76.028 9.144V8.136H77.302V9.144H76.028ZM77.302 5.854V6.848H76.028V5.854H77.302ZM82.09 3.544V2.074H81.334L81.936 1.472C81.544 1.066 80.718 0.533999 80.088 0.197999L79.178 1.066C79.64 1.346 80.186 1.724 80.592 2.074H78.884V0.17H77.302V2.074H74.068V3.544H77.302V4.454H74.502V5.966L73.676 5.35C73.508 5.728 73.214 6.232 72.934 6.652C72.794 6.484 72.668 6.33 72.556 6.19C73.088 5.238 73.55 4.202 73.872 3.166L73.032 2.634L72.738 2.69H72.346V0.183999H70.806V2.69H69.252V4.174H72.01C71.282 5.84 70.078 7.464 68.874 8.43C69.126 8.696 69.504 9.508 69.658 9.928C70.05 9.592 70.442 9.186 70.82 8.724V13.204H72.36V7.898C72.738 8.458 73.102 9.032 73.312 9.438L74.278 8.332L73.578 7.45C73.858 7.1 74.18 6.666 74.502 6.246V13.19H76.028V10.46H77.302V13.148H78.884V10.46H80.2V11.622C80.2 11.776 80.158 11.818 80.018 11.818C79.892 11.818 79.514 11.818 79.15 11.804C79.36 12.182 79.584 12.826 79.654 13.232C80.34 13.232 80.858 13.19 81.25 12.952C81.656 12.7 81.768 12.308 81.768 11.65V4.454H78.884V3.544H82.09ZM85.128 7.982H86.976V9.298C86.332 9.424 85.716 9.564 85.128 9.676V7.982ZM86.976 2.214V3.628H85.128V2.214H86.976ZM86.976 6.526H85.128V5.084H86.976V6.526ZM95.39 3.152H92.352C92.38 2.2 92.38 1.192 92.38 0.141999H90.742C90.742 1.206 90.742 2.2 90.728 3.152H88.894V4.72H90.672C90.546 6.89 90.21 8.696 89.272 10.152L89.118 8.836L88.516 8.962V0.715999H83.658V9.956C83.308 10.026 82.972 10.082 82.692 10.138L82.958 11.846C84.666 11.44 86.962 10.908 89.104 10.376C88.684 10.978 88.138 11.496 87.452 11.958C87.844 12.252 88.362 12.812 88.614 13.218C91.316 11.356 92.072 8.416 92.282 4.72H93.766C93.682 9.214 93.556 10.95 93.234 11.328C93.108 11.524 92.968 11.566 92.744 11.566C92.436 11.566 91.806 11.552 91.12 11.51C91.414 11.944 91.582 12.644 91.61 13.092C92.338 13.12 93.066 13.134 93.514 13.05C94.018 12.966 94.354 12.812 94.676 12.336C95.138 11.692 95.264 9.634 95.39 3.894V3.152ZM102.068 8.584V11.384H100.178L101.326 10.894C101.116 10.25 100.57 9.298 100.038 8.584H102.068ZM100.486 4.314C101.494 3.474 102.362 2.564 102.964 1.724C103.58 2.564 104.504 3.474 105.54 4.314H100.486ZM105.764 8.584C105.456 9.326 104.896 10.348 104.434 11.006L105.344 11.384H103.818V8.584H108.13V7.156H103.818V5.77H106.492V5.042C107.192 5.546 107.92 6.008 108.62 6.372C108.928 5.854 109.306 5.294 109.726 4.874C107.514 3.978 105.26 2.214 103.748 0.0999997H102.026C100.99 1.78 98.75 3.88 96.37 5.042C96.734 5.392 97.196 5.994 97.406 6.386C98.12 6.008 98.834 5.56 99.492 5.084V5.77H102.068V7.156H97.812V8.584H99.954L98.68 9.13C99.17 9.816 99.632 10.754 99.842 11.384H97.112V12.812H108.956V11.384H105.792C106.282 10.796 106.828 9.942 107.36 9.172L105.764 8.584Z" fill="#0097D0"/>
</svg>
