<svg width="94" height="16" viewBox="0 0 94 16" fill="none" xmlns="http://www.w3.org/2000/svg">
<path d="M5.24 7.232L3.976 7.584V5.232H5.336V3.472H3.976V0.464H2.232V3.472H0.423999V5.232H2.232V8.032C1.448 8.224 0.743999 8.4 0.167999 8.544L0.583999 10.368L2.232 9.888V13.264C2.232 13.472 2.152 13.536 1.96 13.536C1.768 13.552 1.224 13.552 0.631999 13.52C0.871999 14.032 1.08 14.816 1.128 15.28C2.152 15.296 2.856 15.232 3.32 14.928C3.816 14.624 3.976 14.16 3.976 13.28V9.392C4.488 9.248 4.984 9.088 5.48 8.944L5.24 7.232ZM6.6 11.024C7.256 11.872 7.992 13.04 8.28 13.824L9.896 12.896C9.576 12.112 8.776 10.976 8.104 10.176L6.6 11.024ZM15.288 7.12V5.392H11.352V4H14.584V2.272H11.352V0.527999H9.544V2.272H6.264V4H9.544V5.392H5.576V7.12H11.608V8.384H5.72V10.112H11.608V13.344C11.608 13.568 11.544 13.616 11.288 13.616C11.048 13.632 10.216 13.632 9.496 13.6C9.72 14.112 9.96 14.864 10.04 15.392C11.176 15.392 12.04 15.36 12.616 15.088C13.24 14.8 13.416 14.336 13.416 13.376V10.112H15.176V8.384H13.416V7.12H15.288ZM25.432 4.176H22.696V5.712H30.232V4.176H27.32V3.248H30.696V1.696H27.32V0.447999H25.432V1.696H22.12V3.248H25.432V4.176ZM16.552 9.808C16.424 11.152 16.2 12.576 15.736 13.52C16.12 13.664 16.808 13.968 17.128 14.192C17.576 13.168 17.928 11.584 18.072 10.064L16.552 9.808ZM20.728 8.704C20.824 9.056 20.92 9.376 20.968 9.648L22.072 9.136V9.616H23.656V7.92H29.192V9.616H30.856V6.448H22.072V7.952C21.784 7.184 21.384 6.32 20.968 5.6L19.624 6.16C19.8 6.48 19.976 6.832 20.136 7.184L18.744 7.264C19.752 5.984 20.84 4.4 21.72 3.056L20.168 2.336C19.8 3.12 19.288 4.032 18.728 4.928C18.584 4.736 18.408 4.512 18.216 4.304C18.808 3.408 19.464 2.144 20.024 1.04L18.376 0.464C18.12 1.28 17.672 2.352 17.224 3.232C17.096 3.12 16.968 3.008 16.856 2.896L15.928 4.176C16.568 4.832 17.304 5.696 17.752 6.416C17.512 6.752 17.272 7.072 17.032 7.36L15.88 7.424L16.072 9.072L18.296 8.896V15.392H19.928V8.768L20.728 8.704ZM20.072 10.144C20.424 11.056 20.728 12.24 20.808 13.024L22.216 12.56C22.12 11.792 21.784 10.624 21.4 9.744L20.072 10.144ZM23.992 9.968C23.992 11.136 23.624 12.896 21 14.144C21.416 14.48 22.008 15.024 22.296 15.408C25.272 13.952 25.704 11.648 25.704 10V8.72H23.992V9.968ZM28.808 13.632C28.6 13.632 28.568 13.568 28.568 13.136V8.72H26.856V13.136C26.856 14.72 27.144 15.232 28.504 15.232H29.528C30.616 15.232 31.048 14.64 31.208 12.352C30.728 12.224 30.024 11.952 29.688 11.648C29.656 13.376 29.576 13.632 29.352 13.632H28.808ZM35.72 0.655999C34.76 3.072 33.08 5.424 31.352 6.88C31.704 7.36 32.248 8.416 32.456 8.896C32.984 8.4 33.528 7.824 34.04 7.2V15.36H35.944V4.512C36.584 3.456 37.144 2.368 37.608 1.28L35.72 0.655999ZM41.608 13.424C40.84 13.424 40.728 13.264 40.728 12.32V8.288C42.6 7.392 44.584 6.32 46.168 5.2L44.76 3.536C43.704 4.448 42.232 5.472 40.728 6.336V0.863999H38.808V12.304C38.808 14.56 39.384 15.2 41.4 15.2H44.136C46.024 15.2 46.52 14.192 46.744 11.44C46.232 11.328 45.432 10.96 44.984 10.624C44.856 12.88 44.728 13.424 43.96 13.424H41.608ZM60.12 6.976V8.112H58.616V6.976H60.12ZM58.616 10.736V9.584H60.12V10.736H58.616ZM55.352 10.736V9.584H56.808V10.736H55.352ZM56.808 6.976V8.112H55.352V6.976H56.808ZM62.28 4.336V2.656H61.416L62.104 1.968C61.656 1.504 60.712 0.895999 59.992 0.511999L58.952 1.504C59.48 1.824 60.104 2.256 60.568 2.656H58.616V0.48H56.808V2.656H53.112V4.336H56.808V5.376H53.608V7.104L52.664 6.4C52.472 6.832 52.136 7.408 51.816 7.888C51.656 7.696 51.512 7.52 51.384 7.36C51.992 6.272 52.52 5.088 52.888 3.904L51.928 3.296L51.592 3.36H51.144V0.495999H49.384V3.36H47.608V5.056H50.76C49.928 6.96 48.552 8.816 47.176 9.92C47.464 10.224 47.896 11.152 48.072 11.632C48.52 11.248 48.968 10.784 49.4 10.256V15.376H51.16V9.312C51.592 9.952 52.008 10.608 52.248 11.072L53.352 9.808L52.552 8.8C52.872 8.4 53.24 7.904 53.608 7.424V15.36H55.352V12.24H56.808V15.312H58.616V12.24H60.12V13.568C60.12 13.744 60.072 13.792 59.912 13.792C59.768 13.792 59.336 13.792 58.92 13.776C59.16 14.208 59.416 14.944 59.496 15.408C60.28 15.408 60.872 15.36 61.32 15.088C61.784 14.8 61.912 14.352 61.912 13.6V5.376H58.616V4.336H62.28ZM65.752 9.408H67.864V10.912C67.128 11.056 66.424 11.216 65.752 11.344V9.408ZM67.864 2.816V4.432H65.752V2.816H67.864ZM67.864 7.744H65.752V6.096H67.864V7.744ZM77.48 3.888H74.008C74.04 2.8 74.04 1.648 74.04 0.447999H72.168C72.168 1.664 72.168 2.8 72.152 3.888H70.056V5.68H72.088C71.944 8.16 71.56 10.224 70.488 11.888L70.312 10.384L69.624 10.528V1.104H64.072V11.664C63.672 11.744 63.288 11.808 62.968 11.872L63.272 13.824C65.224 13.36 67.848 12.752 70.296 12.144C69.816 12.832 69.192 13.424 68.408 13.952C68.856 14.288 69.448 14.928 69.736 15.392C72.824 13.264 73.688 9.904 73.928 5.68H75.624C75.528 10.816 75.384 12.8 75.016 13.232C74.872 13.456 74.712 13.504 74.456 13.504C74.104 13.504 73.384 13.488 72.6 13.44C72.936 13.936 73.128 14.736 73.16 15.248C73.992 15.28 74.824 15.296 75.336 15.2C75.912 15.104 76.296 14.928 76.664 14.384C77.192 13.648 77.336 11.296 77.48 4.736V3.888ZM85.112 10.096V13.296H82.952L84.264 12.736C84.024 12 83.4 10.912 82.792 10.096H85.112ZM83.304 5.216C84.456 4.256 85.448 3.216 86.136 2.256C86.84 3.216 87.896 4.256 89.08 5.216H83.304ZM89.336 10.096C88.984 10.944 88.344 12.112 87.816 12.864L88.856 13.296H87.112V10.096H92.04V8.464H87.112V6.88H90.168V6.048C90.968 6.624 91.8 7.152 92.6 7.568C92.952 6.976 93.384 6.336 93.864 5.856C91.336 4.832 88.76 2.816 87.032 0.4H85.064C83.88 2.32 81.32 4.72 78.6 6.048C79.016 6.448 79.544 7.136 79.784 7.584C80.6 7.152 81.416 6.64 82.168 6.096V6.88H85.112V8.464H80.248V10.096H82.696L81.24 10.72C81.8 11.504 82.328 12.576 82.568 13.296H79.448V14.928H92.984V13.296H89.368C89.928 12.624 90.552 11.648 91.16 10.768L89.336 10.096Z" fill="#F8B131"/>
</svg>
