<svg width="83" height="14" viewBox="0 0 83 14" fill="none" xmlns="http://www.w3.org/2000/svg">
<path d="M4.46 6.078L3.354 6.386V4.328H4.544V2.788H3.354V0.156H1.828V2.788H0.246001V4.328H1.828V6.778C1.142 6.946 0.526001 7.1 0.0220008 7.226L0.386001 8.822L1.828 8.402V11.356C1.828 11.538 1.758 11.594 1.59 11.594C1.422 11.608 0.946001 11.608 0.428001 11.58C0.638001 12.028 0.820001 12.714 0.862001 13.12C1.758 13.134 2.374 13.078 2.78 12.812C3.214 12.546 3.354 12.14 3.354 11.37V7.968C3.802 7.842 4.236 7.702 4.67 7.576L4.46 6.078ZM5.65 9.396C6.224 10.138 6.868 11.16 7.12 11.846L8.534 11.034C8.254 10.348 7.554 9.354 6.966 8.654L5.65 9.396ZM13.252 5.98V4.468H9.808V3.25H12.636V1.738H9.808V0.211999H8.226V1.738H5.356V3.25H8.226V4.468H4.754V5.98H10.032V7.086H4.88V8.598H10.032V11.426C10.032 11.622 9.976 11.664 9.752 11.664C9.542 11.678 8.814 11.678 8.184 11.65C8.38 12.098 8.59 12.756 8.66 13.218C9.654 13.218 10.41 13.19 10.914 12.952C11.46 12.7 11.614 12.294 11.614 11.454V8.598H13.154V7.086H11.614V5.98H13.252ZM22.128 3.404H19.734V4.748H26.328V3.404H23.78V2.592H26.734V1.234H23.78V0.141999H22.128V1.234H19.23V2.592H22.128V3.404ZM14.358 8.332C14.246 9.508 14.05 10.754 13.644 11.58C13.98 11.706 14.582 11.972 14.862 12.168C15.254 11.272 15.562 9.886 15.688 8.556L14.358 8.332ZM18.012 7.366C18.096 7.674 18.18 7.954 18.222 8.192L19.188 7.744V8.164H20.574V6.68H25.418V8.164H26.874V5.392H19.188V6.708C18.936 6.036 18.586 5.28 18.222 4.65L17.046 5.14C17.2 5.42 17.354 5.728 17.494 6.036L16.276 6.106C17.158 4.986 18.11 3.6 18.88 2.424L17.522 1.794C17.2 2.48 16.752 3.278 16.262 4.062C16.136 3.894 15.982 3.698 15.814 3.516C16.332 2.732 16.906 1.626 17.396 0.659999L15.954 0.156C15.73 0.87 15.338 1.808 14.946 2.578C14.834 2.48 14.722 2.382 14.624 2.284L13.812 3.404C14.372 3.978 15.016 4.734 15.408 5.364C15.198 5.658 14.988 5.938 14.778 6.19L13.77 6.246L13.938 7.688L15.884 7.534V13.218H17.312V7.422L18.012 7.366ZM17.438 8.626C17.746 9.424 18.012 10.46 18.082 11.146L19.314 10.74C19.23 10.068 18.936 9.046 18.6 8.276L17.438 8.626ZM20.868 8.472C20.868 9.494 20.546 11.034 18.25 12.126C18.614 12.42 19.132 12.896 19.384 13.232C21.988 11.958 22.366 9.942 22.366 8.5V7.38H20.868V8.472ZM25.082 11.678C24.9 11.678 24.872 11.622 24.872 11.244V7.38H23.374V11.244C23.374 12.63 23.626 13.078 24.816 13.078H25.712C26.664 13.078 27.042 12.56 27.182 10.558C26.762 10.446 26.146 10.208 25.852 9.942C25.824 11.454 25.754 11.678 25.558 11.678H25.082ZM31.13 0.323999C30.29 2.438 28.82 4.496 27.308 5.77C27.616 6.19 28.092 7.114 28.274 7.534C28.736 7.1 29.212 6.596 29.66 6.05V13.19H31.326V3.698C31.886 2.774 32.376 1.822 32.782 0.87L31.13 0.323999ZM36.282 11.496C35.61 11.496 35.512 11.356 35.512 10.53V7.002C37.15 6.218 38.886 5.28 40.272 4.3L39.04 2.844C38.116 3.642 36.828 4.538 35.512 5.294V0.505999H33.832V10.516C33.832 12.49 34.336 13.05 36.1 13.05H38.494C40.146 13.05 40.58 12.168 40.776 9.76C40.328 9.662 39.628 9.34 39.236 9.046C39.124 11.02 39.012 11.496 38.34 11.496H36.282ZM52.48 5.854V6.848H51.164V5.854H52.48ZM51.164 9.144V8.136H52.48V9.144H51.164ZM48.308 9.144V8.136H49.582V9.144H48.308ZM49.582 5.854V6.848H48.308V5.854H49.582ZM54.37 3.544V2.074H53.614L54.216 1.472C53.824 1.066 52.998 0.533999 52.368 0.197999L51.458 1.066C51.92 1.346 52.466 1.724 52.872 2.074H51.164V0.17H49.582V2.074H46.348V3.544H49.582V4.454H46.782V5.966L45.956 5.35C45.788 5.728 45.494 6.232 45.214 6.652C45.074 6.484 44.948 6.33 44.836 6.19C45.368 5.238 45.83 4.202 46.152 3.166L45.312 2.634L45.018 2.69H44.626V0.183999H43.086V2.69H41.532V4.174H44.29C43.562 5.84 42.358 7.464 41.154 8.43C41.406 8.696 41.784 9.508 41.938 9.928C42.33 9.592 42.722 9.186 43.1 8.724V13.204H44.64V7.898C45.018 8.458 45.382 9.032 45.592 9.438L46.558 8.332L45.858 7.45C46.138 7.1 46.46 6.666 46.782 6.246V13.19H48.308V10.46H49.582V13.148H51.164V10.46H52.48V11.622C52.48 11.776 52.438 11.818 52.298 11.818C52.172 11.818 51.794 11.818 51.43 11.804C51.64 12.182 51.864 12.826 51.934 13.232C52.62 13.232 53.138 13.19 53.53 12.952C53.936 12.7 54.048 12.308 54.048 11.65V4.454H51.164V3.544H54.37ZM57.408 7.982H59.256V9.298C58.612 9.424 57.996 9.564 57.408 9.676V7.982ZM59.256 2.214V3.628H57.408V2.214H59.256ZM59.256 6.526H57.408V5.084H59.256V6.526ZM67.67 3.152H64.632C64.66 2.2 64.66 1.192 64.66 0.141999H63.022C63.022 1.206 63.022 2.2 63.008 3.152H61.174V4.72H62.952C62.826 6.89 62.49 8.696 61.552 10.152L61.398 8.836L60.796 8.962V0.715999H55.938V9.956C55.588 10.026 55.252 10.082 54.972 10.138L55.238 11.846C56.946 11.44 59.242 10.908 61.384 10.376C60.964 10.978 60.418 11.496 59.732 11.958C60.124 12.252 60.642 12.812 60.894 13.218C63.596 11.356 64.352 8.416 64.562 4.72H66.046C65.962 9.214 65.836 10.95 65.514 11.328C65.388 11.524 65.248 11.566 65.024 11.566C64.716 11.566 64.086 11.552 63.4 11.51C63.694 11.944 63.862 12.644 63.89 13.092C64.618 13.12 65.346 13.134 65.794 13.05C66.298 12.966 66.634 12.812 66.956 12.336C67.418 11.692 67.544 9.634 67.67 3.894V3.152ZM74.348 8.584V11.384H72.458L73.606 10.894C73.396 10.25 72.85 9.298 72.318 8.584H74.348ZM72.766 4.314C73.774 3.474 74.642 2.564 75.244 1.724C75.86 2.564 76.784 3.474 77.82 4.314H72.766ZM78.044 8.584C77.736 9.326 77.176 10.348 76.714 11.006L77.624 11.384H76.098V8.584H80.41V7.156H76.098V5.77H78.772V5.042C79.472 5.546 80.2 6.008 80.9 6.372C81.208 5.854 81.586 5.294 82.006 4.874C79.794 3.978 77.54 2.214 76.028 0.0999997H74.306C73.27 1.78 71.03 3.88 68.65 5.042C69.014 5.392 69.476 5.994 69.686 6.386C70.4 6.008 71.114 5.56 71.772 5.084V5.77H74.348V7.156H70.092V8.584H72.234L70.96 9.13C71.45 9.816 71.912 10.754 72.122 11.384H69.392V12.812H81.236V11.384H78.072C78.562 10.796 79.108 9.942 79.64 9.172L78.044 8.584Z" fill="#F8B131"/>
</svg>
