<svg width="109" height="14" viewBox="0 0 109 14" fill="none" xmlns="http://www.w3.org/2000/svg">
<path d="M5.546 0.785999L3.572 0.674C3.6 0.981999 3.6 1.262 3.558 1.92C3.53 2.242 3.488 2.62 3.446 3.054C2.424 2.97 1.374 2.788 0.562 2.522L0.464 4.132C1.29 4.37 2.284 4.538 3.25 4.636C3.18 5.266 3.096 5.924 3.012 6.554C2.102 6.456 1.164 6.302 0.254 5.994L0.156 7.688C0.898 7.898 1.822 8.052 2.844 8.15C2.788 8.724 2.746 9.228 2.746 9.564C2.746 11.902 4.3 12.854 6.498 12.854C9.564 12.854 11.468 11.342 11.468 9.228C11.468 8.038 11.034 7.044 10.11 5.868L8.136 6.288C9.06 7.156 9.578 8.052 9.578 9.004C9.578 10.152 8.514 11.048 6.554 11.048C5.182 11.048 4.468 10.432 4.468 9.27C4.468 9.018 4.496 8.668 4.524 8.248C4.706 8.248 4.902 8.248 5.084 8.248C5.966 8.248 6.778 8.192 7.562 8.122L7.604 6.456C6.694 6.568 5.658 6.624 4.79 6.624C4.762 6.624 4.72 6.624 4.692 6.624C4.762 5.994 4.846 5.336 4.93 4.72C6.05 4.72 6.82 4.664 7.66 4.58L7.716 2.914C7.058 3.012 6.162 3.096 5.154 3.11C5.21 2.648 5.266 2.27 5.308 2.032C5.364 1.668 5.42 1.29 5.546 0.785999ZM25.678 7.072C25.678 4.02 23.494 1.612 20.022 1.612C16.396 1.612 13.596 4.37 13.596 7.604C13.596 9.97 14.884 11.678 16.438 11.678C17.964 11.678 19.168 9.942 20.008 7.114C20.414 5.798 20.652 4.51 20.848 3.32C22.738 3.642 23.788 5.084 23.788 7.016C23.788 9.06 22.388 10.348 20.596 10.768C20.218 10.852 19.826 10.936 19.294 10.992L20.344 12.658C23.872 12.112 25.678 10.026 25.678 7.072ZM15.388 7.422C15.388 5.882 16.634 3.838 18.944 3.362C18.79 4.524 18.524 5.714 18.202 6.75C17.628 8.64 17.082 9.522 16.494 9.522C15.948 9.522 15.388 8.836 15.388 7.422ZM26.924 4.538L27.722 6.498C29.178 5.854 32.482 4.468 34.554 4.468C36.248 4.468 37.144 5.462 37.144 6.778C37.144 9.228 34.162 10.334 30.382 10.404L31.194 12.266C36.122 12.014 39.146 9.984 39.146 6.82C39.146 4.23 37.158 2.774 34.638 2.774C32.566 2.774 29.724 3.768 28.66 4.104C28.142 4.258 27.442 4.44 26.924 4.538ZM37.2 0.744L36.08 1.192C36.458 1.738 36.892 2.578 37.186 3.152L38.306 2.662C38.04 2.144 37.55 1.262 37.2 0.744ZM38.852 0.113999L37.746 0.562C38.124 1.094 38.586 1.906 38.866 2.494L39.986 2.018C39.734 1.528 39.216 0.631999 38.852 0.113999ZM50.416 1.906L48.778 0.463999C48.554 0.8 48.106 1.248 47.7 1.654C46.762 2.564 44.844 4.118 43.738 5.014C42.338 6.19 42.226 6.932 43.626 8.122C44.9 9.214 46.958 10.964 47.812 11.846C48.232 12.266 48.638 12.714 49.03 13.148L50.668 11.65C49.24 10.264 46.58 8.164 45.53 7.282C44.774 6.624 44.76 6.47 45.502 5.826C46.44 5.028 48.288 3.6 49.198 2.872C49.52 2.606 49.982 2.242 50.416 1.906ZM58.914 0.758L56.996 0.674C56.996 1.052 56.954 1.612 56.884 2.144C56.688 3.586 56.492 5.322 56.492 6.624C56.492 7.562 56.59 8.416 56.674 8.962L58.396 8.85C58.312 8.192 58.298 7.744 58.326 7.366C58.396 5.518 59.838 3.04 61.49 3.04C62.666 3.04 63.394 4.244 63.394 6.4C63.394 9.788 61.196 10.81 58.088 11.286L59.152 12.91C62.862 12.238 65.284 10.348 65.284 6.386C65.284 3.306 63.772 1.402 61.826 1.402C60.244 1.402 59.026 2.578 58.354 3.67C58.438 2.886 58.718 1.444 58.914 0.758ZM79.2 5.854V6.848H77.884V5.854H79.2ZM77.884 9.144V8.136H79.2V9.144H77.884ZM75.028 9.144V8.136H76.302V9.144H75.028ZM76.302 5.854V6.848H75.028V5.854H76.302ZM81.09 3.544V2.074H80.334L80.936 1.472C80.544 1.066 79.718 0.533999 79.088 0.197999L78.178 1.066C78.64 1.346 79.186 1.724 79.592 2.074H77.884V0.17H76.302V2.074H73.068V3.544H76.302V4.454H73.502V5.966L72.676 5.35C72.508 5.728 72.214 6.232 71.934 6.652C71.794 6.484 71.668 6.33 71.556 6.19C72.088 5.238 72.55 4.202 72.872 3.166L72.032 2.634L71.738 2.69H71.346V0.183999H69.806V2.69H68.252V4.174H71.01C70.282 5.84 69.078 7.464 67.874 8.43C68.126 8.696 68.504 9.508 68.658 9.928C69.05 9.592 69.442 9.186 69.82 8.724V13.204H71.36V7.898C71.738 8.458 72.102 9.032 72.312 9.438L73.278 8.332L72.578 7.45C72.858 7.1 73.18 6.666 73.502 6.246V13.19H75.028V10.46H76.302V13.148H77.884V10.46H79.2V11.622C79.2 11.776 79.158 11.818 79.018 11.818C78.892 11.818 78.514 11.818 78.15 11.804C78.36 12.182 78.584 12.826 78.654 13.232C79.34 13.232 79.858 13.19 80.25 12.952C80.656 12.7 80.768 12.308 80.768 11.65V4.454H77.884V3.544H81.09ZM84.128 7.982H85.976V9.298C85.332 9.424 84.716 9.564 84.128 9.676V7.982ZM85.976 2.214V3.628H84.128V2.214H85.976ZM85.976 6.526H84.128V5.084H85.976V6.526ZM94.39 3.152H91.352C91.38 2.2 91.38 1.192 91.38 0.141999H89.742C89.742 1.206 89.742 2.2 89.728 3.152H87.894V4.72H89.672C89.546 6.89 89.21 8.696 88.272 10.152L88.118 8.836L87.516 8.962V0.715999H82.658V9.956C82.308 10.026 81.972 10.082 81.692 10.138L81.958 11.846C83.666 11.44 85.962 10.908 88.104 10.376C87.684 10.978 87.138 11.496 86.452 11.958C86.844 12.252 87.362 12.812 87.614 13.218C90.316 11.356 91.072 8.416 91.282 4.72H92.766C92.682 9.214 92.556 10.95 92.234 11.328C92.108 11.524 91.968 11.566 91.744 11.566C91.436 11.566 90.806 11.552 90.12 11.51C90.414 11.944 90.582 12.644 90.61 13.092C91.338 13.12 92.066 13.134 92.514 13.05C93.018 12.966 93.354 12.812 93.676 12.336C94.138 11.692 94.264 9.634 94.39 3.894V3.152ZM101.068 8.584V11.384H99.178L100.326 10.894C100.116 10.25 99.57 9.298 99.038 8.584H101.068ZM99.486 4.314C100.494 3.474 101.362 2.564 101.964 1.724C102.58 2.564 103.504 3.474 104.54 4.314H99.486ZM104.764 8.584C104.456 9.326 103.896 10.348 103.434 11.006L104.344 11.384H102.818V8.584H107.13V7.156H102.818V5.77H105.492V5.042C106.192 5.546 106.92 6.008 107.62 6.372C107.928 5.854 108.306 5.294 108.726 4.874C106.514 3.978 104.26 2.214 102.748 0.0999997H101.026C99.99 1.78 97.75 3.88 95.37 5.042C95.734 5.392 96.196 5.994 96.406 6.386C97.12 6.008 97.834 5.56 98.492 5.084V5.77H101.068V7.156H96.812V8.584H98.954L97.68 9.13C98.17 9.816 98.632 10.754 98.842 11.384H96.112V12.812H107.956V11.384H104.792C105.282 10.796 105.828 9.942 106.36 9.172L104.764 8.584Z" fill="#0050B0"/>
</svg>
