<svg width="167" height="32" viewBox="0 0 167 32" fill="none" xmlns="http://www.w3.org/2000/svg">
<path d="M20.7042 15.9423C20.6038 13.091 20.4986 9.66918 20.4986 6.18357H20.4269C19.6555 9.21336 18.6753 12.5938 17.7636 15.3765L14.8885 24.638H10.7223L8.19616 15.4817C7.43114 12.6687 6.65656 9.32173 6.06367 6.18357H5.99036C5.88517 9.38867 5.7481 13.0544 5.60626 16.0077L5.15043 25.0301H0.212891L1.71742 1.28906H8.82889L11.1431 9.24683C11.9113 11.9594 12.6125 14.9175 13.1369 17.6971H13.2803C13.9099 14.9558 14.7147 11.8559 15.5244 9.17989L18.0091 1.28906H25.017L26.276 25.0301H21.0915L20.7042 15.9423Z" fill="#0072BC"/>
<path d="M44.5631 20.8737C44.5631 22.4946 44.6348 24.0756 44.8468 25.0303H40.0463L39.7292 23.2994H39.6256C38.5036 24.6717 36.752 25.4144 34.7199 25.4144C31.2518 25.4144 29.1831 22.8802 29.1831 20.1342C29.1831 15.6572 33.1787 13.5455 39.2415 13.5455V13.3367C39.2415 12.4202 38.749 11.1181 36.1224 11.1181C34.3693 11.1181 32.5157 11.7174 31.3921 12.382L30.4119 8.9681C31.6009 8.29553 33.9485 7.41895 37.0676 7.41895C42.7781 7.41895 44.5631 10.7994 44.5631 14.8476V20.8737ZM39.4168 16.894C36.6149 16.894 34.4426 17.5634 34.4426 19.6066C34.4426 20.9789 35.3511 21.6451 36.5432 21.6451C37.8405 21.6451 38.9594 20.7653 39.3116 19.672C39.3785 19.3915 39.4168 19.0711 39.4168 18.7571V16.894Z" fill="#0072BC"/>
<path d="M54.1321 15.0987H54.2022C54.5863 14.3592 55.0039 13.6547 55.4278 13.0156L58.8927 7.80712H65.3045L59.1764 14.7783L66.1811 25.0311H59.6322L55.4613 17.9484L54.1321 19.6728V25.0311H48.8057V0.0214844H54.1321V15.0987Z" fill="#0072BC"/>
<path d="M71.4745 18.0905C71.6483 20.3393 73.8174 21.4008 76.3037 21.4008C78.1286 21.4008 79.5981 21.1521 81.0404 20.6612L81.7369 24.2903C79.9901 25.0298 77.8497 25.3773 75.5355 25.3773C69.7214 25.3773 66.3936 21.9968 66.3936 16.5748C66.3936 12.2094 69.1285 7.38184 75.0446 7.38184C80.5814 7.38184 82.6852 11.7169 82.6852 15.9739C82.6852 16.8935 82.5768 17.6968 82.5099 18.1192L71.4745 18.0905ZM77.7461 14.4264C77.7461 13.1577 77.1819 10.9376 74.7689 10.9376C72.4898 10.9376 71.5781 13.0143 71.4363 14.4264H77.7461Z" fill="#0072BC"/>
<path d="M86.0125 21.296C87.3784 22.1758 89.3435 22.8436 91.4425 22.8436C94.5584 22.8436 96.3849 21.2243 96.3849 18.7922C96.3849 16.6119 95.121 15.3082 91.935 14.1097C88.0796 12.6976 85.6985 10.6575 85.6985 7.34406C85.6985 3.65126 88.7427 0.900391 93.3328 0.900391C95.7155 0.900391 97.5037 1.463 98.5221 2.06067L97.6774 4.5645C96.9411 4.10549 95.3648 3.43929 93.2324 3.43929C90.0033 3.43929 88.7809 5.37096 88.7809 6.99343C88.7809 9.21357 90.2201 10.3069 93.4714 11.5724C97.4654 13.1582 99.464 15.0596 99.464 18.5452C99.464 22.2093 96.8072 25.4144 91.2306 25.4144C88.9562 25.4144 86.4699 24.7099 85.2061 23.8668L86.0125 21.296Z" fill="#231F20"/>
<path d="M103.463 0.0214844H106.542V10.6584H106.614C107.105 9.77704 107.873 8.96899 108.82 8.47492C109.728 7.91231 110.82 7.59515 111.972 7.59515C114.254 7.59515 117.898 9.00565 117.898 14.8867V25.0311H114.812V15.2326C114.812 12.453 113.799 10.1627 110.887 10.1627C108.893 10.1627 107.35 11.5732 106.752 13.2611C106.576 13.6882 106.542 14.1424 106.542 14.7449V25.0311H103.463V0.0214844Z" fill="#231F20"/>
<path d="M129.81 25.4148C125.255 25.4148 121.679 22.0344 121.679 16.6458C121.679 10.9385 125.427 7.59473 130.089 7.59473C134.961 7.59473 138.252 11.1473 138.252 16.3287C138.252 22.6703 133.871 25.4148 129.844 25.4148H129.81ZM129.915 23.0911C132.856 23.0911 135.066 20.3099 135.066 16.4339C135.066 13.5459 133.63 9.91846 129.982 9.91846C126.369 9.91846 124.798 13.2957 124.798 16.5422C124.798 20.2701 126.898 23.0911 129.877 23.0911H129.915Z" fill="#231F20"/>
<path d="M142.14 13.5459C142.14 11.3624 142.106 9.6013 142.001 7.98202H144.769L144.942 10.9034H145.013C146.239 8.79166 148.266 7.59473 151.001 7.59473C155.134 7.59473 158.223 11.0803 158.223 16.2585C158.223 22.3882 154.471 25.4148 150.51 25.4148C148.237 25.4148 146.311 24.4299 145.292 22.7389H145.22V32.0003H142.14V13.5459ZM145.22 18.0914C145.22 18.5137 145.259 18.9728 145.364 19.3584C145.888 21.5053 147.782 22.9859 149.954 22.9859C153.212 22.9859 155.105 20.3099 155.105 16.4004C155.105 12.9865 153.35 10.0603 150.093 10.0603C147.989 10.0603 145.993 11.5393 145.399 13.8631C145.326 14.2838 145.22 14.7444 145.22 15.1285V18.0914Z" fill="#231F20"/>
<path d="M160.713 1.39122C161.082 1.32428 161.617 1.28125 162.111 1.28125C162.89 1.28125 163.4 1.41194 163.751 1.68926C164.028 1.89964 164.196 2.23433 164.196 2.62003C164.196 3.26073 163.718 3.69105 163.133 3.86477V3.88709C163.56 4.01778 163.818 4.36841 163.962 4.87683C164.145 5.56215 164.279 6.03391 164.389 6.22357H163.635C163.542 6.08492 163.418 5.66416 163.267 5.05214C163.099 4.37479 162.79 4.11978 162.127 4.09906H161.442V6.22357H160.713V1.39122ZM161.442 3.61774H162.186C162.965 3.61774 163.459 3.24639 163.459 2.68697C163.459 2.05264 162.932 1.77692 162.162 1.77692C161.81 1.77692 161.568 1.8056 161.442 1.83429V3.61774Z" fill="#231F20"/>
<path d="M158.42 3.86652C158.42 5.999 160.154 7.73464 162.286 7.73464C164.419 7.73464 166.155 5.999 166.155 3.86652C166.155 1.73404 164.419 0 162.286 0C160.154 0 158.42 1.73404 158.42 3.86652ZM159.148 3.86652C159.148 2.13567 160.556 0.728359 162.286 0.728359C164.017 0.728359 165.426 2.13567 165.426 3.86652C165.426 5.59737 164.017 7.00628 162.286 7.00628C160.556 7.00628 159.148 5.59737 159.148 3.86652Z" fill="#231F20"/>
</svg>
