<svg width="109" height="32" viewBox="0 0 109 32" fill="none" xmlns="http://www.w3.org/2000/svg">
<path d="M87.271 26.8183H22.2993L27.4815 32.0004L87.271 26.8183ZM97.7001 23.5146V13.1502C97.7001 11.2069 99.0604 9.58748 101.004 9.58748C102.947 9.58748 104.307 11.2069 104.307 13.1502V23.5146H108.324V13.1502C108.324 8.87493 105.409 5.44173 101.133 5.44173C99.19 5.44173 97.7001 6.54295 97.7001 6.54295V5.83039H93.6839V23.4498H97.7001V23.5146ZM84.4208 5.37695C79.7568 5.37695 76.4532 9.45792 76.4532 14.6401C76.4532 20.0814 80.5989 23.9033 84.8094 23.9033C86.9471 23.9033 89.603 23.1907 91.8702 19.9519L88.3074 17.879C85.5868 21.8952 80.9876 19.8871 80.4694 15.8061H91.9997C93.0362 9.58748 88.9552 5.37695 84.4208 5.37695ZM87.9187 12.3729H80.7285C81.5706 8.29193 87.1414 8.03282 87.9187 12.3729Z" fill="#BF0000"/>
<path d="M75.1574 19.3033C74.7687 19.5625 74.3153 19.7568 73.7971 19.7568C73.1493 19.7568 71.9185 19.2386 71.9185 17.6191V10.0402H75.3517V5.82966H71.9185V1.4248H67.9023V5.82966H65.7647V10.0402H67.9023V17.6191C67.9023 21.5706 70.8821 23.9025 73.8619 23.9025C74.9631 23.9025 76.5177 23.5139 77.7485 22.8013L75.1574 19.3033ZM60.3881 5.82966V16.194C60.3881 18.1374 59.0278 19.7568 57.0845 19.7568C55.1412 19.7568 53.7809 18.1374 53.7809 16.194V5.82966H49.7646V16.194C49.7646 20.4693 52.6796 23.9025 56.9549 23.9025C58.8983 23.9025 60.3881 22.8013 60.3881 22.8013V23.4491H64.4043V5.82966H60.3881Z" fill="#BF0000"/>
<path d="M42.2503 14.1215L49.1167 5.82996H43.5458L38.6875 11.9838V0H34.6066V23.5142H38.6875V16.2591L44.647 23.5142H50.2179L42.2503 14.1215ZM28.3232 5.82996V6.60729C27.0924 5.82996 26.056 5.37652 24.5661 5.37652C20.0317 5.37652 16.5337 9.52227 16.5337 14.6397C16.5337 19.7571 19.9669 23.9028 24.5661 23.9028C26.056 23.9028 27.1572 23.4494 28.3232 22.6721V23.4494H32.3394V5.82996H28.3232ZM24.5013 19.6923C22.2341 19.6923 20.6147 17.4899 20.6147 14.7045C20.6147 11.919 22.2341 9.7166 24.5013 9.7166C26.7685 9.7166 28.3232 11.919 28.3232 14.7045C28.3879 17.4899 26.7685 19.6923 24.5013 19.6923Z" fill="#BF0000"/>
<path d="M5.00349 23.5139V16.6475H7.91847L13.0359 23.4491H18.2828L12.0642 15.2224C14.0075 13.8621 15.2383 11.5948 15.2383 9.00375C15.2383 4.79323 11.8051 1.4248 7.65937 1.4248H0.792969V23.4491H5.00349V23.5139ZM5.00349 5.63533H7.72414C9.60268 5.63533 11.1573 7.18999 11.1573 9.06853C11.1573 10.9471 9.60268 12.5017 7.72414 12.5017H5.00349V5.63533Z" fill="#BF0000"/>
</svg>
