<svg width="97" height="40" viewBox="0 0 97 40" fill="none" xmlns="http://www.w3.org/2000/svg">
<path fill-rule="evenodd" clip-rule="evenodd" d="M96.5017 20.668C96.5017 13.8323 93.1906 8.43848 86.8623 8.43848C80.5072 8.43848 76.6621 13.8323 76.6621 20.6146C76.6621 28.6519 81.2014 32.7105 87.7167 32.7105C90.8943 32.7105 93.2974 31.9896 95.1132 30.9749V25.6345C93.2974 26.5424 91.2147 27.1031 88.5712 27.1031C85.9811 27.1031 83.6847 26.1953 83.391 23.0444H96.4483C96.4483 22.6973 96.5017 21.3088 96.5017 20.668ZM83.3109 18.1313C83.3109 15.114 85.1533 13.859 86.8356 13.859C88.4644 13.859 90.2 15.114 90.2 18.1313H83.3109Z" fill="#635BFF"/>
<path fill-rule="evenodd" clip-rule="evenodd" d="M66.355 8.43848C63.7382 8.43848 62.056 9.66677 61.1215 10.5212L60.7743 8.86571H54.8999V40.0002L61.5754 38.585L61.6021 31.0283C62.5634 31.7226 63.9786 32.7106 66.3283 32.7106C71.108 32.7106 75.4604 28.8655 75.4604 20.401C75.4337 12.6574 71.0279 8.43848 66.355 8.43848ZM64.7529 26.8361C63.1775 26.8361 62.2429 26.2754 61.6021 25.5811L61.5754 15.6747C62.2696 14.9003 63.2309 14.3663 64.7529 14.3663C67.1828 14.3663 68.865 17.0899 68.865 20.5879C68.865 24.1659 67.2095 26.8361 64.7529 26.8361Z" fill="#635BFF"/>
<path fill-rule="evenodd" clip-rule="evenodd" d="M45.7144 6.8624L52.4165 5.4205V0L45.7144 1.4152V6.8624Z" fill="#635BFF"/>
<path d="M52.4165 8.8916H45.7144V32.2558H52.4165V8.8916Z" fill="#635BFF"/>
<path fill-rule="evenodd" clip-rule="evenodd" d="M38.5318 10.8682L38.1045 8.89222H32.3369V32.2564H39.0124V16.4222C40.5878 14.3661 43.258 14.7399 44.0858 15.0337V8.89222C43.2313 8.57179 40.1072 7.98435 38.5318 10.8682Z" fill="#635BFF"/>
<path fill-rule="evenodd" clip-rule="evenodd" d="M25.1807 3.09863L18.6654 4.48714L18.6387 25.8754C18.6387 29.8273 21.6026 32.7378 25.5545 32.7378C27.7441 32.7378 29.3462 32.3373 30.2273 31.8567V26.4362C29.3729 26.7833 25.154 28.0116 25.154 24.0597V14.5805H30.2273V8.89296H25.154L25.1807 3.09863Z" fill="#635BFF"/>
<path fill-rule="evenodd" clip-rule="evenodd" d="M7.13011 15.6747C7.13011 14.6333 7.98457 14.2328 9.39977 14.2328C11.4291 14.2328 13.9925 14.8469 16.0219 15.9417V9.66677C13.8056 8.7856 11.616 8.43848 9.39977 8.43848C3.97928 8.43848 0.374512 11.2689 0.374512 15.9951C0.374512 23.3649 10.5213 22.19 10.5213 25.3675C10.5213 26.5958 9.45318 26.9963 7.95787 26.9963C5.74161 26.9963 2.9112 26.0885 0.668233 24.8602V31.2153C3.15152 32.2833 5.6615 32.7373 7.95787 32.7373C13.5119 32.7373 17.3303 29.987 17.3303 25.2073C17.3036 17.2501 7.13011 18.6653 7.13011 15.6747Z" fill="#635BFF"/>
</svg>
