<svg width="28" height="40" viewBox="0 0 28 40" fill="none" xmlns="http://www.w3.org/2000/svg">
<g clip-path="url(#clip0)">
<path d="M7.21598 39.9994C10.896 39.9994 13.8827 37.0128 13.8827 33.3327V26.666H7.21598C3.53598 26.666 0.549316 29.6527 0.549316 33.3327C0.549316 37.0128 3.53598 39.9994 7.21598 39.9994Z" fill="#0ACF83"/>
<path d="M0.549316 20.0007C0.549316 16.3207 3.53598 13.334 7.21598 13.334H13.8827V26.6674H7.21598C3.53598 26.6674 0.549316 23.6807 0.549316 20.0007Z" fill="#A259FF"/>
<path d="M0.549316 6.66667C0.549316 2.98667 3.53598 0 7.21598 0H13.8827V13.3333H7.21598C3.53598 13.3333 0.549316 10.3467 0.549316 6.66667Z" fill="#F24E1E"/>
<path d="M13.8823 0H20.549C24.2291 0 27.2158 2.98667 27.2158 6.66667C27.2158 10.3467 24.2291 13.3333 20.549 13.3333H13.8823V0Z" fill="#FF7262"/>
<path d="M27.2158 20.0007C27.2158 23.6807 24.2291 26.6674 20.549 26.6674C16.869 26.6674 13.8823 23.6807 13.8823 20.0007C13.8823 16.3207 16.869 13.334 20.549 13.334C24.2291 13.334 27.2158 16.3207 27.2158 20.0007Z" fill="#1ABCFE"/>
</g>
<defs>
<clipPath id="clip0">
<rect width="26.672" height="40" fill="white" transform="translate(0.546387)"/>
</clipPath>
</defs>
</svg>
