<svg width="42" height="40" viewBox="0 0 42 40" fill="none" xmlns="http://www.w3.org/2000/svg">
<g clip-path="url(#clip0)">
<path d="M7.73371 0H34.2294C38.2465 0 41.4944 3.24786 41.4944 7.26496V32.735C41.4944 36.7521 38.2465 40 34.2294 40H7.73371C3.71661 40 0.46875 36.7521 0.46875 32.735V7.26496C0.46875 3.24786 3.71661 0 7.73371 0Z" fill="#330000"/>
<path d="M20.3491 23.999H13.9902L12.691 28.0161C12.6568 28.1699 12.5201 28.2725 12.3662 28.2554H9.15256C8.96453 28.2554 8.91325 28.1528 8.96453 27.9477L14.4688 12.1015C14.5201 11.9306 14.5714 11.7426 14.6397 11.5374C14.7081 11.1785 14.7423 10.8024 14.7423 10.4263C14.7252 10.3408 14.7936 10.2554 14.8791 10.2383C14.8962 10.2383 14.9132 10.2383 14.9303 10.2383H19.3064C19.4432 10.2383 19.5115 10.2896 19.5286 10.375L25.7679 27.9819C25.8192 28.1699 25.7679 28.2554 25.597 28.2554H22.0244C21.9047 28.2725 21.785 28.187 21.7509 28.0674L20.3491 23.999ZM14.9816 20.5289H19.3235C19.2209 20.1699 19.0842 19.7426 18.9303 19.2981C18.7765 18.8366 18.6226 18.3409 18.4688 17.828C18.2979 17.2981 18.144 16.7853 17.9731 16.2554C17.8021 15.7255 17.6483 15.2297 17.5115 14.734C17.3748 14.2554 17.2551 13.8109 17.1355 13.4007H17.1013C16.9474 14.1357 16.7594 14.8708 16.5201 15.6058C16.2637 16.4263 16.0073 17.281 15.7338 18.1357C15.4944 19.0075 15.238 19.8109 14.9816 20.5289Z" fill="#FF9A00"/>
<path d="M29.4942 13.1617C28.9301 13.1788 28.3831 12.9566 27.9728 12.5634C27.5796 12.136 27.3745 11.5719 27.3916 10.9908C27.3745 10.4096 27.5967 9.86255 28.007 9.46938C28.4173 9.07622 28.9643 8.87109 29.5284 8.87109C30.195 8.87109 30.7079 9.07622 31.0839 9.46938C31.46 9.87964 31.6651 10.4266 31.648 10.9908C31.6651 11.5719 31.46 12.136 31.0497 12.5634C30.6566 12.9737 30.0754 13.1959 29.4942 13.1617ZM27.5796 27.9993V14.8369C27.5796 14.666 27.648 14.5976 27.8019 14.5976H31.1865C31.3403 14.5976 31.4087 14.6831 31.4087 14.8369V27.9993C31.4087 28.1873 31.3403 28.2728 31.1865 28.2728H27.8361C27.6651 28.2728 27.5796 28.1702 27.5796 27.9993Z" fill="#FF9A00"/>
</g>
<defs>
<clipPath id="clip0">
<rect width="41.0256" height="40" fill="white" transform="translate(0.46875)"/>
</clipPath>
</defs>
</svg>
