<svg width="42" height="40" viewBox="0 0 42 40" fill="none" xmlns="http://www.w3.org/2000/svg">
<g clip-path="url(#clip0)">
<path d="M7.75959 0H34.2553C38.2724 0 41.5203 3.24786 41.5203 7.26496V32.735C41.5203 36.7521 38.2724 40 34.2553 40H7.75959C3.74249 40 0.494629 36.7521 0.494629 32.735V7.26496C0.494629 3.24786 3.74249 0 7.75959 0Z" fill="#001E36"/>
<path d="M9.72559 28.0512V10.4615C9.72559 10.3418 9.77687 10.2735 9.89653 10.2735C10.1871 10.2735 10.4606 10.2735 10.8538 10.2564C11.264 10.2393 11.6914 10.2393 12.1529 10.2222C12.6145 10.2051 13.1102 10.2051 13.6401 10.188C14.17 10.1709 14.6829 10.1709 15.1957 10.1709C16.5974 10.1709 17.7598 10.3418 18.717 10.7008C19.5717 10.9914 20.3581 11.47 21.0076 12.1025C21.5546 12.6495 21.982 13.3162 22.2555 14.0512C22.5119 14.7692 22.6487 15.5042 22.6487 16.2735C22.6487 17.7435 22.3068 18.9572 21.623 19.9145C20.9393 20.8718 19.982 21.5897 18.8709 22C17.7085 22.4273 16.4264 22.5812 15.0247 22.5812C14.6145 22.5812 14.341 22.5812 14.17 22.5641C13.9991 22.547 13.7598 22.547 13.435 22.547V28.0341C13.4521 28.1538 13.3666 28.2564 13.247 28.2735C13.2299 28.2735 13.2128 28.2735 13.1786 28.2735H9.93071C9.79396 28.2735 9.72559 28.2051 9.72559 28.0512ZM13.4521 13.5726V19.3162C13.6914 19.3333 13.9136 19.3504 14.1187 19.3504H15.0247C15.6914 19.3504 16.3581 19.2478 16.9905 19.0427C17.5376 18.8888 18.0162 18.5641 18.3923 18.1367C18.7512 17.7094 18.9222 17.1282 18.9222 16.376C18.9393 15.8461 18.8025 15.3162 18.529 14.8547C18.2384 14.4102 17.8282 14.0683 17.3324 13.8803C16.6999 13.6239 16.0162 13.5213 15.3153 13.5384C14.8709 13.5384 14.4777 13.5384 14.1529 13.5555C13.8111 13.5384 13.5717 13.5555 13.4521 13.5726Z" fill="#31A8FF"/>
<path d="M33.3154 18.2734C32.8026 17.9999 32.2555 17.8119 31.6743 17.6922C31.0419 17.5555 30.4094 17.47 29.7598 17.47C29.4179 17.4529 29.059 17.5042 28.7342 17.5896C28.512 17.6409 28.3239 17.7606 28.2043 17.9315C28.1188 18.0683 28.0675 18.2392 28.0675 18.3931C28.0675 18.5469 28.1359 18.7008 28.2384 18.8375C28.3923 19.0255 28.5974 19.1794 28.8196 19.299C29.2128 19.5042 29.6231 19.6922 30.0333 19.8631C30.9564 20.1708 31.8453 20.5982 32.6658 21.111C33.2299 21.47 33.6914 21.9486 34.0162 22.5298C34.2897 23.0768 34.4265 23.6751 34.4094 24.2905C34.4265 25.0939 34.1872 25.8973 33.7427 26.564C33.2641 27.2478 32.5974 27.7777 31.8282 28.0854C30.9906 28.4443 29.9649 28.6324 28.7342 28.6324C27.9478 28.6324 27.1786 28.564 26.4094 28.4102C25.8111 28.3076 25.2128 28.1196 24.6658 27.8631C24.5461 27.7948 24.4607 27.6751 24.4778 27.5384V24.564C24.4778 24.5127 24.4949 24.4443 24.5461 24.4102C24.5974 24.376 24.6487 24.3931 24.7 24.4272C25.3667 24.8204 26.0675 25.0939 26.8196 25.2649C27.4692 25.4358 28.153 25.5213 28.8367 25.5213C29.4863 25.5213 29.9479 25.4358 30.2555 25.282C30.529 25.1623 30.7171 24.8717 30.7171 24.564C30.7171 24.3247 30.5803 24.1025 30.3068 23.8802C30.0333 23.658 29.4692 23.4016 28.6316 23.0768C27.7598 22.7691 26.9564 22.3589 26.2043 21.8461C25.6743 21.47 25.2299 20.9743 24.9051 20.3931C24.6316 19.8461 24.4949 19.2478 24.512 18.6495C24.512 17.9144 24.7171 17.2136 25.0931 16.5811C25.5205 15.8973 26.153 15.3503 26.888 15.0084C27.6914 14.5982 28.7 14.4102 29.9137 14.4102C30.6145 14.4102 31.3325 14.4614 32.0333 14.564C32.5461 14.6324 33.0419 14.7691 33.5034 14.9572C33.5718 14.9743 33.6402 15.0426 33.6743 15.111C33.6914 15.1794 33.7085 15.2478 33.7085 15.3161V18.1025C33.7085 18.1708 33.6743 18.2392 33.6231 18.2734C33.4692 18.3076 33.3837 18.3076 33.3154 18.2734Z" fill="#31A8FF"/>
</g>
<defs>
<clipPath id="clip0">
<rect width="41.0256" height="40" fill="white" transform="translate(0.494629)"/>
</clipPath>
</defs>
</svg>
