<svg width="171" height="32" viewBox="0 0 171 32" fill="none" xmlns="http://www.w3.org/2000/svg">
<g clip-path="url(#clip0)">
<path fill-rule="evenodd" clip-rule="evenodd" d="M160.947 26C155.424 26 150.947 21.5228 150.947 16C150.947 10.4772 155.424 6 160.947 6C166.47 6 170.947 10.4772 170.947 16C170.947 21.5228 166.47 26 160.947 26ZM160.947 23C164.813 23 167.947 19.866 167.947 16C167.947 12.134 164.813 9 160.947 9C157.081 9 153.947 12.134 153.947 16C153.947 19.866 157.081 23 160.947 23Z" fill="black"/>
<path d="M142.447 6H140.447C140.171 6 139.947 6.22386 139.947 6.5V25.5C139.947 25.7761 140.171 26 140.447 26H142.447C142.723 26 142.947 25.7761 142.947 25.5V6.5C142.947 6.22386 142.723 6 142.447 6Z" fill="black"/>
<path fill-rule="evenodd" clip-rule="evenodd" d="M121.947 26C119.781 26 117.614 26 115.447 26C115.171 26 114.947 25.7761 114.947 25.5V6.5C114.947 6.22386 115.171 6 115.447 6C117.614 6 119.781 6 121.947 6C127.47 6 131.947 10.4772 131.947 16C131.947 21.5228 127.47 26 121.947 26ZM121.947 23C125.813 23 128.947 19.866 128.947 16C128.947 12.134 125.813 9 121.947 9C119.37 9 118.037 9 117.947 9V23C119.505 23 120.839 23 121.947 23Z" fill="black"/>
<path fill-rule="evenodd" clip-rule="evenodd" d="M90.4473 6H92.4473C92.7234 6 92.9473 6.22386 92.9473 6.5C92.9473 10.3333 92.9473 14.1667 92.9473 18C92.9473 20.76 95.1873 23 97.9473 23C100.707 23 102.947 20.76 102.947 18C102.947 14.1667 102.947 10.3333 102.947 6.5C102.947 6.22386 103.171 6 103.447 6H105.447C105.723 6 105.947 6.22386 105.947 6.5C105.947 10.3333 105.947 14.1667 105.947 18C105.947 22.42 102.367 26.017 97.9473 26C93.5272 25.983 89.9473 22.42 89.9473 18C89.9473 14.1667 89.9473 10.3333 89.9473 6.5C89.9473 6.22386 90.1711 6 90.4473 6Z" fill="black"/>
<path fill-rule="evenodd" clip-rule="evenodd" d="M68.4473 6H82.4473C82.7234 6 82.9473 6.22386 82.9473 6.5V8.5C82.9473 8.77614 82.7234 9 82.4473 9H76.9473V25.5C76.9473 25.7761 76.7234 26 76.4473 26H74.4473C74.1711 26 73.9473 25.7761 73.9473 25.5V9H68.4473C68.1711 9 67.9473 8.77614 67.9473 8.5V6.5C67.9473 6.22386 68.1711 6 68.4473 6Z" fill="black"/>
<path d="M60.749 8.05276C60.4475 7.80597 60.205 7.62035 60.0217 7.49591C58.5625 6.50566 56.9431 6 55.1941 6C51.5639 6 48.7441 8.16904 48.7441 11.5C48.7441 14.6124 50.3741 15.8272 54.5051 17.3298C54.6457 17.3809 54.6457 17.3809 54.7851 17.4316C56.2814 17.9768 57.0127 18.2986 57.6401 18.7331C58.3773 19.2437 58.6441 19.7896 58.6441 20.5C58.6441 21.6821 57.072 23 55.1941 23C53.9825 23 52.5918 22.5105 51.0301 21.4946C50.8863 21.401 50.6906 21.2657 50.4431 21.0887L50.4431 21.0887C50.2227 20.9311 49.9168 20.9778 49.7534 21.1939L48.5484 22.788L48.5484 22.788C48.3819 23.0083 48.4255 23.3219 48.6458 23.4884C48.6496 23.4913 48.6534 23.4941 48.6573 23.4969C49.0684 23.7895 49.3892 24.0083 49.6198 24.1534C51.5592 25.373 53.4148 26 55.1941 26C58.6233 26 61.6441 23.4676 61.6441 20.5C61.6441 18.8349 60.9215 17.3566 59.3482 16.2669C58.4403 15.6381 57.547 15.245 55.812 14.6129C55.6706 14.5614 55.6706 14.5614 55.5306 14.5105C52.5404 13.4228 51.7441 12.8294 51.7441 11.5C51.7441 10.0233 53.0744 9 55.1941 9C56.2626 9 57.2449 9.28292 58.1661 9.86582C58.3189 9.9625 58.521 10.1114 58.7726 10.3125L58.7726 10.3125C58.9787 10.4773 59.2773 10.4535 59.4548 10.2583L60.8023 8.77599L60.8023 8.77597C60.988 8.57166 60.973 8.25545 60.7687 8.06971C60.7623 8.06389 60.7557 8.05824 60.749 8.05276Z" fill="black"/>
<path fill-rule="evenodd" clip-rule="evenodd" d="M4.78511 25.6167L26.564 3.83785C26.7983 3.60353 27.1782 3.60353 27.4125 3.83785L29.1096 5.5349C29.3439 5.76922 29.3439 6.14912 29.1096 6.38343L7.3307 28.1623C7.09638 28.3966 6.71648 28.3966 6.48217 28.1623L4.78511 26.4653C4.5508 26.231 4.5508 25.8511 4.78511 25.6167Z" fill="url(#paint0_linear)"/>
</g>
<defs>
<linearGradient id="paint0_linear" x1="4.60938" y1="28.3381" x2="29.2853" y2="3.66211" gradientUnits="userSpaceOnUse">
<stop stop-color="#FF0055"/>
<stop offset="1" stop-color="#F94CFF"/>
</linearGradient>
<clipPath id="clip0">
<rect width="170" height="32" fill="white" transform="translate(0.947266)"/>
</clipPath>
</defs>
</svg>
