<svg width="42" height="40" viewBox="0 0 42 40" fill="none" xmlns="http://www.w3.org/2000/svg">
<path d="M9.34911 0H32.7173C35.0589 0 37.3046 0.930205 38.9604 2.58598C40.6162 4.24176 41.5464 6.48747 41.5464 8.82909V31.1709C41.5464 32.3304 41.318 33.4785 40.8743 34.5497C40.4306 35.6208 39.7803 36.5942 38.9604 37.414C38.1405 38.2339 37.1672 38.8842 36.096 39.3279C35.0248 39.7716 33.8767 40 32.7173 40H9.34911C7.00749 40 4.76178 39.0698 3.106 37.414C1.45022 35.7582 0.52002 33.5125 0.52002 31.1709L0.52002 8.82909C0.52002 6.48747 1.45022 4.24176 3.106 2.58598C4.76178 0.930205 7.00749 0 9.34911 0V0Z" fill="#470137"/>
<path d="M22.0869 10.5209L16.9678 18.97L22.4451 27.9427C22.4803 28.0055 22.49 28.0794 22.4724 28.1491C22.4542 28.2137 22.3905 28.1727 22.2796 28.1909H18.3705C18.0978 28.1909 17.9024 28.1809 17.7924 27.9973C17.4251 27.2815 17.0581 26.5703 16.6915 25.8637C16.3248 25.157 15.9348 24.437 15.5214 23.7037C15.1081 22.9697 14.6996 22.2264 14.296 21.4737H14.2687C13.9014 22.2076 13.5208 22.9415 13.1269 23.6755C12.7329 24.4094 12.343 25.1385 11.9569 25.8627C11.5714 26.59 11.1775 27.3103 10.7751 28.0237C10.7015 28.1891 10.5733 28.2055 10.3896 28.2055H6.61962C6.5469 28.2055 6.50509 28.2346 6.496 28.1609C6.48541 28.0937 6.50032 28.025 6.53781 27.9682L11.8496 19.2409L6.67417 10.4927C6.61871 10.4191 6.60962 10.36 6.6469 10.3109C6.66724 10.2874 6.6928 10.269 6.72153 10.2572C6.75026 10.2454 6.78137 10.2404 6.81236 10.2427H10.6924C10.7771 10.2377 10.8619 10.2517 10.9405 10.2837C11.0061 10.3213 11.0623 10.3732 11.1051 10.4355C11.4354 11.1694 11.8027 11.9034 12.2069 12.6373C12.6111 13.3712 13.0193 14.0958 13.4315 14.8109C13.8442 15.5267 14.2248 16.2512 14.5733 16.9846H14.6005C14.9642 16.2324 15.3357 15.4985 15.7151 14.7827C16.0945 14.067 16.4796 13.3467 16.8705 12.6218C17.2651 11.8946 17.6457 11.1746 18.0124 10.4618C18.0332 10.393 18.071 10.3304 18.1224 10.28C18.1902 10.2455 18.2666 10.2313 18.3423 10.2391H21.9478C21.9679 10.2341 21.9887 10.233 22.0092 10.2361C22.0296 10.2391 22.0493 10.2461 22.067 10.2568C22.0847 10.2674 22.1002 10.2815 22.1125 10.2981C22.1248 10.3147 22.1337 10.3336 22.1387 10.3537C22.1459 10.3827 22.1447 10.4131 22.1352 10.4415C22.1257 10.4698 22.1083 10.4948 22.0851 10.5137L22.0869 10.5209Z" fill="#FF61F6"/>
<path d="M29.9865 28.5474C28.72 28.5668 27.465 28.3038 26.3129 27.7774C25.2391 27.2806 24.3416 26.4693 23.7392 25.451C23.0768 24.2632 22.7529 22.9165 22.8029 21.5574C22.7925 20.2941 23.1154 19.0505 23.7392 17.9519C24.382 16.8325 25.3272 15.9169 26.4665 15.3101C27.7982 14.616 29.2855 14.2746 30.7865 14.3183C30.8774 14.3183 30.9974 14.3237 31.1447 14.3319C31.292 14.3401 31.4656 14.3546 31.6674 14.3737V8.95101C31.6674 8.82283 31.722 8.75828 31.8329 8.75828H35.3002C35.3192 8.75558 35.3386 8.75667 35.3572 8.76147C35.3758 8.76627 35.3933 8.7747 35.4087 8.78626C35.4241 8.79783 35.437 8.81231 35.4468 8.82888C35.4565 8.84545 35.4629 8.86378 35.4656 8.88283C35.4679 8.89637 35.4679 8.91019 35.4656 8.92374V25.1928C35.4656 25.5056 35.4795 25.8449 35.5074 26.211C35.5353 26.5771 35.5583 26.9071 35.5765 27.201C35.5793 27.2578 35.5651 27.3141 35.5356 27.3627C35.5061 27.4114 35.4627 27.45 35.4111 27.4737C34.5164 27.847 33.5845 28.1237 32.6311 28.2992C31.7588 28.4608 30.8737 28.5439 29.9865 28.5474ZM31.6647 25.1346V17.621C31.5158 17.5805 31.3638 17.5528 31.2102 17.5383C31.0229 17.5195 30.8347 17.5104 30.6456 17.511C29.9778 17.5046 29.3178 17.6557 28.7192 17.9519C28.1361 18.2417 27.6383 18.6781 27.2747 19.2183C26.8708 19.869 26.674 20.6269 26.7102 21.3919C26.6968 21.992 26.7948 22.5894 26.9993 23.1537C27.1661 23.6081 27.4291 24.0212 27.7702 24.3646C28.0968 24.6802 28.4924 24.9155 28.9256 25.0519C29.3835 25.2007 29.8623 25.2753 30.3438 25.2728C30.6002 25.2728 30.8386 25.2634 31.0593 25.2446C31.2644 25.2295 31.4673 25.1926 31.6647 25.1346Z" fill="#FF61F6"/>
</svg>
