<svg width="41" height="40" viewBox="0 0 41 40" fill="none" xmlns="http://www.w3.org/2000/svg">
<g clip-path="url(#clip0)">
<path d="M40.0501 20.3746C40.0501 18.7358 39.9171 17.54 39.6293 16.2998H20.916V23.6964H31.9003C31.6789 25.5346 30.483 28.3029 27.8255 30.163L27.7882 30.4106L33.705 34.9943L34.1149 35.0352C37.8797 31.5583 40.0501 26.4426 40.0501 20.3746Z" fill="#4285F4"/>
<path d="M20.9163 39.8625C26.2976 39.8625 30.8154 38.0907 34.1152 35.0347L27.8257 30.1624C26.1427 31.3362 23.8837 32.1556 20.9163 32.1556C15.6455 32.1556 11.1721 28.6787 9.57743 23.873L9.34369 23.8929L3.1913 28.6543L3.11084 28.878C6.38841 35.3889 13.1208 39.8625 20.9163 39.8625Z" fill="#34A853"/>
<path d="M9.57738 23.8736C9.15662 22.6335 8.91311 21.3046 8.91311 19.9317C8.91311 18.5585 9.15662 17.2298 9.55525 15.9897L9.5441 15.7256L3.31463 10.8877L3.11082 10.9846C1.75998 13.6865 0.984863 16.7205 0.984863 19.9317C0.984863 23.1428 1.75998 26.1767 3.11082 28.8785L9.57738 23.8736Z" fill="#FBBC05"/>
<path d="M20.9162 7.70672C24.6588 7.70672 27.1834 9.32336 28.6229 10.6744L34.2479 5.18214C30.7933 1.97099 26.2976 0 20.9162 0C13.1208 0 6.3884 4.47343 3.11084 10.9843L9.55527 15.9893C11.1721 11.1837 15.6455 7.70672 20.9162 7.70672Z" fill="#EB4335"/>
</g>
<defs>
<clipPath id="clip0">
<rect width="39.088" height="40" fill="white" transform="translate(0.98291)"/>
</clipPath>
</defs>
</svg>
