<svg width="33" height="40" viewBox="0 0 33 40" fill="none" xmlns="http://www.w3.org/2000/svg">
<path d="M0.932259 21.0086L11.6635 2.6377C13.0265 3.44011 19.8994 7.24379 21.0083 7.96708L10.2782 26.338C9.10576 27.8882 -0.553326 23.3612 0.932259 21.0086Z" fill="#FBBC04"/>
<path d="M31.7878 21.0101L21.0577 2.63919C19.5576 0.143893 16.3268 -0.763283 13.6732 0.711157C11.0197 2.1856 10.2117 5.36183 11.7118 7.96968L22.4419 26.3406C23.9419 28.8359 27.1728 29.743 29.8263 28.2686C32.3651 26.7941 33.2879 23.5054 31.7878 21.0112V21.0101Z" fill="#4285F4"/>
<path d="M5.57616 28.9796C8.55089 28.9796 10.9624 26.628 10.9624 23.7271C10.9624 20.8262 8.55089 18.4746 5.57616 18.4746C2.60143 18.4746 0.189941 20.8262 0.189941 23.7271C0.189941 26.628 2.60143 28.9796 5.57616 28.9796Z" fill="#34A853"/>
<path fill-rule="evenodd" clip-rule="evenodd" d="M22.1387 38.4022L23.8385 33.8945H24.4932L26.193 38.4022H25.5509L25.1165 37.1808H23.2215L22.7808 38.4022H22.1387ZM23.4167 36.6394H24.915L24.1785 34.6059H24.1533L23.4167 36.6394ZM27.8173 38.5029C27.4185 38.5029 27.0744 38.3455 26.7848 38.0308C26.4952 37.716 26.3504 37.3256 26.3504 36.8598C26.3504 36.3939 26.4952 36.0036 26.7848 35.6888C27.0744 35.374 27.4185 35.2166 27.8173 35.2166C28.0524 35.2166 28.2635 35.267 28.4502 35.3677C28.6368 35.4684 28.7764 35.5943 28.8687 35.7454H28.8939L28.8687 35.3173V33.8945H29.4479V38.4022H28.8939V37.9741H28.8687C28.7764 38.1252 28.6368 38.2511 28.4499 38.3518C28.2629 38.4526 28.0524 38.5029 27.8173 38.5029ZM27.9118 37.9741C28.1847 37.9741 28.4165 37.8734 28.6076 37.6719C28.7986 37.4704 28.8939 37.1997 28.8939 36.8598C28.8939 36.5198 28.7983 36.2491 28.6076 36.0476C28.4168 35.8462 28.1847 35.7454 27.9118 35.7454C27.6432 35.7454 27.4122 35.8473 27.2192 36.0506C27.0263 36.254 26.9296 36.5242 26.9296 36.8598C26.9296 37.1954 27.0263 37.4652 27.2192 37.6686C27.4122 37.872 27.6432 37.9741 27.9118 37.9741ZM31.2673 38.5029C30.9232 38.5029 30.6388 38.4189 30.4144 38.2511C30.1899 38.0833 30.0249 37.8734 29.9201 37.6215L30.4363 37.4075C30.6 37.7934 30.8792 37.9867 31.2736 37.9867C31.4543 37.9867 31.6021 37.9467 31.7173 37.8671C31.8326 37.7874 31.8906 37.6823 31.8906 37.5523C31.8906 37.3508 31.7499 37.2145 31.4688 37.1431L30.8455 36.992C30.6484 36.9416 30.4615 36.8461 30.2852 36.7054C30.1089 36.5647 30.0208 36.375 30.0208 36.1358C30.0208 35.8629 30.1412 35.6414 30.3829 35.4714C30.6246 35.3015 30.9107 35.2166 31.2421 35.2166C31.515 35.2166 31.7584 35.2785 31.9724 35.4022C32.1865 35.5259 32.3398 35.7033 32.432 35.9343L31.9284 36.1421C31.815 35.8692 31.5799 35.7329 31.2232 35.7329C31.0511 35.7329 30.9063 35.7684 30.7888 35.8399C30.6714 35.9113 30.6126 36.0077 30.6126 36.1295C30.6126 36.3058 30.7489 36.4254 31.0218 36.4883L31.6325 36.6331C31.9221 36.7002 32.1361 36.8157 32.2746 36.9794C32.4131 37.1431 32.4824 37.3278 32.4824 37.5334C32.4824 37.8104 32.369 38.0412 32.1424 38.2259C31.9158 38.4107 31.624 38.5029 31.2673 38.5029Z" fill="#747474"/>
<path d="M2.67117 38.4936C1.27518 38.4936 0.0708008 37.3439 0.0708008 35.948C0.0708008 34.552 1.24781 33.4023 2.67117 33.4023C3.43759 33.4023 4.01241 33.7034 4.42299 34.114L3.93029 34.6067C3.62919 34.333 3.21861 34.114 2.67117 34.114C1.65839 34.114 0.837224 34.9352 0.837224 35.9753C0.837224 37.0155 1.63102 37.8366 2.67117 37.8366C3.3281 37.8366 3.71131 37.5629 3.95766 37.3166C4.14927 37.125 4.28613 36.8239 4.34087 36.4407H2.67117V35.7564H5.02518C5.05255 35.8932 5.05255 36.0301 5.05255 36.1943C5.05255 36.7144 4.91569 37.3713 4.45036 37.8366C3.98503 38.2472 3.41022 38.4936 2.67117 38.4936ZM8.66569 36.8512C8.66569 37.8093 7.92664 38.4936 7.05073 38.4936C6.14744 38.4936 5.43576 37.8093 5.43576 36.8512C5.43576 35.8932 6.17481 35.2089 7.05073 35.2089C7.95401 35.2089 8.66569 35.9206 8.66569 36.8512ZM7.95401 36.8512C7.95401 36.2491 7.54343 35.8658 7.05073 35.8658C6.55803 35.8658 6.14744 36.2764 6.14744 36.8512C6.14744 37.4261 6.55803 37.8366 7.05073 37.8366C7.54343 37.864 7.95401 37.4534 7.95401 36.8512ZM12.3062 36.8512C12.3062 37.8093 11.5671 38.4936 10.6912 38.4936C9.78795 38.4936 9.07627 37.8093 9.07627 36.8512C9.07627 35.8932 9.81532 35.2089 10.6912 35.2089C11.5671 35.2089 12.3062 35.9206 12.3062 36.8512ZM11.5945 36.8512C11.5945 36.2491 11.1839 35.8658 10.6912 35.8658C10.1985 35.8658 9.78795 36.2764 9.78795 36.8512C9.78795 37.4261 10.1985 37.8366 10.6912 37.8366C11.1566 37.864 11.5945 37.4534 11.5945 36.8512ZM15.8372 35.3184V38.2746C15.8372 39.479 15.1255 39.9991 14.277 39.9991C13.4832 39.9991 12.9905 39.4516 12.8263 39.041L13.4558 38.7673C13.5653 39.041 13.839 39.3421 14.277 39.3421C14.8244 39.3421 15.1529 39.0137 15.1529 38.3841V38.1377H15.1255C14.9613 38.3293 14.6602 38.521 14.2496 38.521C13.4285 38.521 12.6894 37.8093 12.6894 36.8786C12.6894 35.948 13.4558 35.2363 14.2496 35.2363C14.6328 35.2363 14.9613 35.4005 15.1255 35.5921H15.1529V35.3184H15.8372ZM15.2077 36.8786C15.2077 36.3038 14.8244 35.8658 14.3317 35.8658C13.839 35.8658 13.4285 36.2764 13.4285 36.8786C13.4285 37.4534 13.839 37.864 14.3317 37.864C14.8244 37.864 15.2077 37.4261 15.2077 36.8786ZM17.0963 33.5666V38.3841H16.3847V33.5666H17.0963ZM19.9431 37.3987L20.4905 37.7819C20.2989 38.0556 19.8883 38.521 19.1219 38.521C18.1912 38.521 17.5069 37.8093 17.5069 36.8786C17.5069 35.8932 18.1912 35.2363 19.0398 35.2363C19.8883 35.2363 20.2989 35.9206 20.4358 36.2764L20.5179 36.468L18.3281 37.3713C18.4923 37.6998 18.7661 37.864 19.1219 37.864C19.4777 37.864 19.7515 37.6724 19.9431 37.3987ZM18.2186 36.7965L19.6967 36.1943C19.6146 36.0027 19.3682 35.8385 19.0945 35.8385C18.7113 35.8385 18.1912 36.1669 18.2186 36.7965Z" fill="#747474"/>
</svg>
