<svg width="47" height="40" viewBox="0 0 47 40" fill="none" xmlns="http://www.w3.org/2000/svg">
<path d="M41.512 10.0166H4.58945C3.71216 10.0166 3.00098 10.7278 3.00098 11.6051V38.4119C3.00098 39.2892 3.71216 40.0003 4.58945 40.0003H41.512C42.3893 40.0003 43.1005 39.2892 43.1005 38.4119V11.6051C43.1005 10.7278 42.3893 10.0166 41.512 10.0166Z" fill="#4989F5"/>
<path d="M41.0486 9.79102H5.0086C3.89219 9.79102 3.02344 18.4311 3.02344 19.5476L22.7601 40H41.0486C42.1685 39.997 43.0755 39.0899 43.0786 37.9701V11.8205C43.0752 10.7009 42.1683 9.79407 41.0486 9.79102Z" fill="url(#paint0_linear)"/>
<path d="M12.1572 15.0371H23.6142V0H13.8728L12.1572 15.0371Z" fill="#3C4BA6"/>
<path d="M35.0713 15.0371H23.6143V0H33.3557L35.0713 15.0371ZM43.1006 2.85047L43.1148 2.90172C43.1114 2.88363 43.1045 2.86683 43.1006 2.85047Z" fill="#7BABF7"/>
<path d="M43.1146 2.90172L43.1004 2.85047C42.7372 1.18718 41.265 0.00107679 39.5625 0H33.3555L35.0697 15.0375H46.5267L43.1146 2.90172Z" fill="#3F51B5"/>
<path d="M4.12749 2.85059L4.11328 2.90184C4.11673 2.88375 4.12362 2.86695 4.12749 2.85059Z" fill="#7BABF7"/>
<path d="M4.113 2.90172L4.12722 2.85047C4.49044 1.18718 5.96262 0.00107679 7.6651 0H13.8726L12.1557 15.0375H0.69873L4.113 2.90172Z" fill="#7BABF7"/>
<path fill-rule="evenodd" clip-rule="evenodd" d="M12.1766 15.0332C12.1766 18.1952 9.6133 20.7585 6.45134 20.7585C3.28938 20.7585 0.726074 18.1952 0.726074 15.0332H12.1766Z" fill="#709BE0"/>
<path fill-rule="evenodd" clip-rule="evenodd" d="M23.6268 15.0332C23.6268 18.1952 21.0635 20.7585 17.9015 20.7585C14.7396 20.7585 12.1763 18.1952 12.1763 15.0332H23.6268Z" fill="#3C4BA6"/>
<path fill-rule="evenodd" clip-rule="evenodd" d="M35.0775 15.0332C35.0775 18.1952 32.5142 20.7585 29.3522 20.7585C26.1903 20.7585 23.627 18.1952 23.627 15.0332H35.0775Z" fill="#709BE0"/>
<path fill-rule="evenodd" clip-rule="evenodd" d="M46.5267 15.0332C46.5267 18.1952 43.9634 20.7585 40.8014 20.7585C37.6395 20.7585 35.0762 18.1952 35.0762 15.0332H46.5267Z" fill="#3C4BA6"/>
<path d="M40.8019 30.545C40.7817 30.2723 40.7481 30.0234 40.7003 29.7055H34.4549C34.4549 30.579 34.4549 31.5322 34.4515 32.4061H38.0695C37.9926 32.8134 37.836 33.2014 37.6087 33.548C37.3814 33.8946 37.0879 34.1929 36.745 34.4257C36.745 34.4257 36.745 34.4106 36.7424 34.4102C36.2996 34.701 35.8007 34.8957 35.278 34.9818C34.7539 35.0776 34.2166 35.0753 33.6934 34.9749C33.1621 34.8649 32.6591 34.6469 32.2156 34.3344C31.561 33.8702 31.0561 33.225 30.7628 32.478C30.7404 32.4199 30.7197 32.3613 30.6986 32.3018V32.2954L30.7042 32.2911C30.4196 31.4556 30.4188 30.5496 30.7021 29.7137C30.9016 29.1273 31.2299 28.593 31.663 28.1502C32.6789 27.0993 34.1969 26.704 35.5963 27.126C36.1329 27.2905 36.6232 27.5791 37.0276 27.9684L38.2482 26.7478C38.4636 26.5303 38.6871 26.3197 38.8943 26.0948C38.2753 25.5175 37.5488 25.0676 36.7562 24.7708C35.3137 24.2477 33.7356 24.2339 32.2841 24.7316C32.2336 24.7488 32.1833 24.7668 32.1333 24.7855C30.5674 25.3741 29.2792 26.5287 28.5231 28.021C28.2561 28.5492 28.0617 29.111 27.9451 29.6913C27.2537 33.1272 29.3502 36.5092 32.7351 37.4183C33.8416 37.7146 35.0178 37.7073 36.133 37.4541C37.1461 37.2253 38.0829 36.7385 38.8525 36.0409C39.6553 35.3022 40.2308 34.318 40.5323 33.2727C40.7844 32.3868 40.8757 31.463 40.8019 30.545Z" fill="white"/>
<defs>
<linearGradient id="paint0_linear" x1="3.02344" y1="24.8952" x2="43.0782" y2="24.8952" gradientUnits="userSpaceOnUse">
<stop offset="0.03" stop-color="#4079D8"/>
<stop offset="1" stop-color="#4989F5"/>
</linearGradient>
</defs>
</svg>
