<svg width="48" height="56" viewBox="0 0 48 56" fill="none" xmlns="http://www.w3.org/2000/svg">
<path d="M26.9829 9.67295C26.8161 10.2066 26.7827 10.7402 27.0162 11.2405C27.2163 11.6408 27.6833 12.1411 28.7506 12.1411C31.152 12.1411 31.9525 14.8093 31.9858 14.9094L32.3194 16.1101C32.4194 16.477 32.753 16.6771 33.0865 16.6771C33.1532 16.6771 33.2199 16.6771 33.32 16.6438C33.7536 16.5103 33.987 16.0768 33.887 15.6432L33.5534 14.4425C33.1866 13.075 31.6857 10.5068 28.7839 10.5068C28.6172 10.5068 28.5171 10.4734 28.4838 10.4734C28.4838 10.1732 28.8506 9.40612 29.2842 8.87247C29.5511 8.50558 29.4844 8.00529 29.1175 7.73846C27.7833 6.70451 25.3152 8.87247 23.9477 10.2066C19.3116 14.776 16.6767 13.9755 16.61 13.9422C16.2098 13.7754 15.7428 13.9755 15.5761 14.3757C15.4093 14.776 15.6094 15.2429 16.0097 15.4097C16.3432 15.5765 19.6452 16.7438 25.015 11.3406C25.8489 10.5068 26.4826 10.0065 26.9829 9.67295Z" fill="#6C6AD2"/>
<path d="M44.86 39.9238L31.7189 35.3877L30.5182 33.053V31.9857C31.4521 31.5855 33.2198 30.6182 33.52 28.9172C33.6867 27.9833 33.9202 26.6492 34.1537 25.5485C34.187 25.5485 34.187 25.5485 34.2204 25.5485C34.9541 25.6152 35.6879 25.1817 36.4217 24.1811C37.3222 22.9803 37.7225 21.4127 37.4556 19.9452C37.2889 19.0447 36.8886 18.411 36.3883 18.0774C36.1549 17.944 35.9214 17.844 35.7213 17.8106C35.788 17.5438 35.8547 17.3103 35.9214 17.0435C36.0881 16.1763 36.2216 14.8088 36.2216 14.7421C36.2216 14.7088 36.2216 14.7088 36.2216 14.6754C36.2549 5.7701 31.352 0 23.8142 0C16.243 0 11.3734 5.7701 11.3734 14.7088C11.3734 14.7755 11.4068 16.3431 11.707 17.377C11.7403 17.5104 11.807 17.6772 11.8404 17.844C11.6069 17.8773 11.3401 17.944 11.1066 18.1108C10.573 18.4443 10.2061 19.078 10.0393 19.9786C9.77248 21.4461 10.1394 23.0137 11.0733 24.2144C11.807 25.1817 12.5074 25.6152 13.2412 25.5819C13.408 26.5158 13.6748 27.6164 13.9416 28.6837C14.2752 30.0179 15.4425 31.4187 16.7099 32.0191V32.6861C16.6432 32.7528 16.6099 32.7862 16.5765 32.8862L15.2091 35.5879L2.96843 39.9238C1.16736 40.6242 0 42.3252 0 44.2597V52.698C0 54.5325 1.50089 56 3.30197 56H44.5599C46.3943 56 47.8618 54.4991 47.8618 52.698V44.2597C47.8952 42.3585 46.6945 40.5908 44.86 39.9238ZM24.3812 45.2936L26.5158 54.4324H20.679L22.8136 45.2936C22.8469 45.1269 22.8469 44.9601 22.7802 44.7933L21.3794 41.4914L23.4806 39.3901L25.782 41.6581L24.4479 44.7933C24.3812 44.9601 24.3478 45.1269 24.3812 45.2936ZM27.3496 40.9577C27.3163 40.9244 27.2829 40.891 27.2496 40.8577L25.0149 38.6563L28.1501 37.2222C28.9506 36.8553 29.5843 36.2549 30.0179 35.5211L30.9518 37.3556C31.1852 37.8225 31.2186 38.056 30.8517 38.6563L27.9833 41.6248L27.3496 40.9577ZM15.4425 28.2835C15.1757 27.1828 14.6087 24.9148 14.5753 23.7475C14.542 23.3139 14.2085 22.9803 13.7749 22.9803C13.7749 22.9803 13.7749 22.9803 13.7415 22.9803C13.3079 22.9803 12.9744 23.3472 12.9744 23.7808V23.9142C12.841 23.8475 12.6075 23.6474 12.3073 23.2472C11.707 22.4467 11.4068 21.3794 11.5736 20.4122C11.6736 19.8785 11.8404 19.5783 11.9071 19.5116C12.1406 19.3782 12.4407 19.7451 12.4407 19.7451C12.6742 20.0453 13.1078 20.112 13.4413 19.9452C13.7749 19.7784 13.9416 19.3782 13.8416 19.0113C13.8416 19.0113 13.4747 17.7439 13.2412 16.9768C13.0411 16.2764 12.9744 15.109 12.9744 14.7421C12.9744 8.70518 15.8094 1.63431 23.8142 1.63431C31.7856 1.63431 34.654 8.67183 34.654 14.7088C34.6206 14.9422 34.5205 16.1096 34.3871 16.81C34.2204 17.6438 33.8535 18.7111 33.8535 18.7445C33.7201 19.078 33.8868 19.4783 34.187 19.6784C34.4872 19.8785 34.9208 19.8451 35.1876 19.5783C35.3877 19.4116 35.5878 19.5116 35.6546 19.545C35.7213 19.6117 35.9214 19.9119 36.0214 20.4455C36.1549 21.4127 35.888 22.4801 35.2877 23.2805C34.9541 23.7141 34.7207 23.9142 34.5873 23.9809C34.5205 23.6474 34.2537 23.4139 33.9202 23.3472C33.52 23.2805 33.1531 23.5474 33.053 23.9142C32.7195 25.0149 32.3859 26.8827 32.0524 28.7171C31.8523 29.7844 30.1513 30.5515 29.5843 30.7516C29.2507 30.8517 29.0173 31.1519 29.0173 31.5188V33.8868C28.8839 34.7207 28.3169 35.4544 27.5164 35.8213L23.7141 37.5557L19.645 35.6879C19.0447 35.4211 18.5777 34.9208 18.3109 34.3204V31.5188C18.3109 31.1519 18.0774 30.8517 17.7105 30.7516C16.7767 30.4181 15.676 29.2507 15.4425 28.2835ZM17.0435 35.3544C17.4771 36.0882 18.1108 36.6885 18.9113 37.0554L22.0798 38.5229L19.1447 41.458L16.1096 38.3895C15.8428 38.156 15.7094 37.9893 16.1096 37.1888L17.0435 35.3544ZM1.60095 52.698V44.2263C1.60095 42.9589 2.36808 41.8583 3.53544 41.3913L14.3085 37.5223C14.2085 38.1227 14.2752 38.8565 15.0089 39.5235L18.6111 43.1257C18.7778 43.2924 18.978 43.3591 19.1781 43.3591C19.3782 43.3591 19.6117 43.2591 19.7451 43.1257L20.1787 42.6921L21.2126 45.1269L19.0113 54.4324H3.30197C2.36808 54.4324 1.60095 53.6653 1.60095 52.698ZM46.2942 52.698C46.2942 53.6319 45.5271 54.3991 44.5932 54.3991H28.1834L26.0155 45.1936L26.9827 42.8922L27.4163 43.3258C27.5497 43.4592 27.7832 43.5593 27.9833 43.5593C28.1834 43.5593 28.4169 43.4592 28.5503 43.3258L32.0191 39.7236C32.0524 39.6903 32.0858 39.6569 32.1191 39.5902C32.6194 38.7898 32.7862 38.156 32.6194 37.4556L44.293 41.4914C45.4604 41.925 46.2609 43.0923 46.2609 44.3597V52.698H46.2942Z" fill="#6C6AD2"/>
</svg>
