<svg width="32" height="32" viewBox="0 0 32 32" fill="none" xmlns="http://www.w3.org/2000/svg">
<g clip-path="url(#clip0)">
<path d="M4 24.3334C4 24.8857 4.44772 25.3334 5 25.3334H27C27.5523 25.3334 28 24.8857 28 24.3334V23.6667C28 23.1145 27.5523 22.6667 27 22.6667H5C4.44772 22.6667 4 23.1145 4 23.6667V24.3334ZM4 16.3334C4 16.8857 4.44772 17.3334 5 17.3334H27C27.5523 17.3334 28 16.8857 28 16.3334V15.6667C28 15.1145 27.5523 14.6667 27 14.6667H5C4.44772 14.6667 4 15.1145 4 15.6667V16.3334ZM5 6.66675C4.44772 6.66675 4 7.11446 4 7.66675V8.33341C4 8.8857 4.44772 9.33341 5 9.33341H27C27.5523 9.33341 28 8.8857 28 8.33341V7.66675C28 7.11446 27.5523 6.66675 27 6.66675H5Z" fill="black"/>
</g>
<defs>
<clipPath id="clip0">
<rect width="32" height="32" fill="white"/>
</clipPath>
</defs>
</svg>
