<svg width="22" height="24" viewBox="0 0 22 24" fill="none" xmlns="http://www.w3.org/2000/svg">
<path fill-rule="evenodd" clip-rule="evenodd" d="M8.15598 8.13152V6.29596C8.15598 5.96145 8.1733 5.8499 8.2248 5.6783C8.36243 5.20657 8.82715 4.85495 9.3777 4.85495C9.92825 4.85495 10.3928 5.21513 10.5304 5.6783C10.5821 5.8499 10.5994 5.96145 10.5994 6.29596V9.12647C10.5994 9.29808 10.5994 9.46953 10.5649 9.62402C10.4704 10.0528 10.0832 10.439 9.65297 10.5332C9.49817 10.5675 9.32604 10.5675 9.15392 10.5675H6.31489C5.97939 10.5675 5.8675 10.5504 5.69537 10.4989C5.23081 10.3616 4.86955 9.89847 4.86955 9.34957C4.86955 8.80052 5.23081 8.33736 5.69537 8.20013C5.8675 8.14863 5.97939 8.13152 6.31489 8.13152H8.15598ZM18.2735 20.9637H3.04564V7.59118C3.04564 7.41957 3.10587 7.27379 3.22634 7.15368L7.1752 3.21651C7.29567 3.09656 7.44189 3.0365 7.61401 3.0365H18.2735V20.9637ZM20.0029 0.0171145C19.9255 0.00855711 19.8222 0 19.6243 0H7.20953C7.07205 0 6.93441 0.00855711 6.83969 0.0171145C6.27183 0.0686118 5.76419 0.334503 5.35987 0.737618L0.739837 5.34379C0.335663 5.74706 0.0688189 6.25302 0.01732 6.81918C0.00858364 6.91346 0 7.05069 0 7.18791V22.3102C0 22.5075 0.00858364 22.6105 0.01732 22.6877C0.0859852 23.331 0.671018 23.9141 1.31629 23.9827C1.39384 23.9914 1.49699 24 1.69487 24H19.6243C19.8222 24 19.9255 23.9914 20.0029 23.9827C20.6481 23.9141 21.2332 23.331 21.302 22.6877C21.3104 22.6105 21.3191 22.5075 21.3191 22.3102V1.68978C21.3191 1.4925 21.3104 1.38951 21.302 1.31234C21.2332 0.669006 20.6481 0.0857266 20.0029 0.0171145Z" fill="white"/>
</svg>
